<svg xmlns="http://www.w3.org/2000/svg" width="24.461" height="22.933" viewBox="0 0 24.461 22.933">
  <g id="Group_166321" data-name="Group 166321" transform="translate(-1093 -135)">
    <path id="Path_4320" data-name="Path 4320" d="M267.466,96.828h-10.7a.765.765,0,0,1-.764-.764V80.775a.765.765,0,0,1,.764-.764h10.7a.765.765,0,0,1,.764.764V96.064A.765.765,0,0,1,267.466,96.828Z" transform="translate(849.231 58.048)" fill="#eceff1"/>
    <path id="Path_4321" data-name="Path 4321" d="M259.822,145.54h-3.058a.764.764,0,0,1,0-1.529h3.058a.764.764,0,1,1,0,1.529Z" transform="translate(849.231 -2.895)" fill="#388e3c"/>
    <path id="Path_4322" data-name="Path 4322" d="M259.822,209.54h-3.058a.764.764,0,0,1,0-1.529h3.058a.764.764,0,1,1,0,1.529Z" transform="translate(849.231 -63.837)" fill="#388e3c"/>
    <path id="Path_4323" data-name="Path 4323" d="M259.822,273.54h-3.058a.764.764,0,0,1,0-1.529h3.058a.764.764,0,1,1,0,1.529Z" transform="translate(849.231 -124.779)" fill="#388e3c"/>
    <path id="Path_4324" data-name="Path 4324" d="M259.822,337.54h-3.058a.764.764,0,0,1,0-1.529h3.058a.764.764,0,1,1,0,1.529Z" transform="translate(849.231 -185.722)" fill="#388e3c"/>
    <path id="Path_4325" data-name="Path 4325" d="M386.293,145.54h-1.529a.764.764,0,0,1,0-1.529h1.529a.764.764,0,0,1,0,1.529Z" transform="translate(727.346 -2.895)" fill="#388e3c"/>
    <path id="Path_4326" data-name="Path 4326" d="M386.293,209.54h-1.529a.764.764,0,0,1,0-1.529h1.529a.764.764,0,0,1,0,1.529Z" transform="translate(727.346 -63.837)" fill="#388e3c"/>
    <path id="Path_4327" data-name="Path 4327" d="M386.293,273.54h-1.529a.764.764,0,0,1,0-1.529h1.529a.764.764,0,0,1,0,1.529Z" transform="translate(727.346 -124.779)" fill="#388e3c"/>
    <path id="Path_4328" data-name="Path 4328" d="M386.293,337.54h-1.529a.764.764,0,0,1,0-1.529h1.529a.764.764,0,0,1,0,1.529Z" transform="translate(727.346 -185.722)" fill="#388e3c"/>
    <path id="Path_4329" data-name="Path 4329" d="M13.483,16.166A.751.751,0,0,0,12.854,16L.624,18.3A.762.762,0,0,0,0,19.048V35.865a.763.763,0,0,0,.624.751l12.231,2.293a.719.719,0,0,0,.141.014.764.764,0,0,0,.764-.764v-21.4A.762.762,0,0,0,13.483,16.166Z" transform="translate(1093 119.011)" fill="#2e7d32"/>
    <path id="Path_4330" data-name="Path 4330" d="M86.674,167.167,84.257,164.4l2.445-3.143a.765.765,0,0,0-1.206-.94l-2.264,2.911-1.908-2.18a.764.764,0,0,0-1.15,1.006l2.1,2.4-2.131,2.74a.765.765,0,0,0,1.208.939l1.949-2.507,2.223,2.539a.763.763,0,1,0,1.15-1Z" transform="translate(1016.838 -18.145)" fill="#fafafa"/>
  </g>
</svg>
