<svg xmlns="http://www.w3.org/2000/svg" width="28" height="21.776" viewBox="0 0 28 21.776">
  <path id="eye-solid_1_" data-name="eye-solid (1)" d="M14.023,32a13.678,13.678,0,0,0-9.362,3.918A19.259,19.259,0,0,0,.145,42.29a1.546,1.546,0,0,0,0,1.2,19.259,19.259,0,0,0,4.516,6.372,13.678,13.678,0,0,0,9.362,3.918,13.678,13.678,0,0,0,9.362-3.918,19.405,19.405,0,0,0,4.52-6.372,1.546,1.546,0,0,0,0-1.2,19.356,19.356,0,0,0-4.52-6.372A13.678,13.678,0,0,0,14.023,32Zm7,10.888a7,7,0,1,1-7-7A7,7,0,0,1,21.022,42.888Zm-7-3.111a3.114,3.114,0,0,1-3.111,3.111,3.047,3.047,0,0,1-1.536-.408c-.01.136-.019.267-.019.408a4.666,4.666,0,1,0,4.666-4.666,3.826,3.826,0,0,0-.408.019A3.1,3.1,0,0,1,14.023,39.777Z" transform="translate(-0.025 -32)" fill="#707070"/>
</svg>
