<svg xmlns="http://www.w3.org/2000/svg" width="24" height="19.2" viewBox="0 0 24 19.2">
  <path id="boxes-packing-solid" d="M9.6,1.8A1.8,1.8,0,0,1,11.4,0H22.2A1.8,1.8,0,0,1,24,1.8V17.4a1.8,1.8,0,0,1-1.8,1.8H14.3a2.034,2.034,0,0,0,.1-.6V9.5a1.8,1.8,0,0,0,1.2-1.7V6.6a1.8,1.8,0,0,0-1.8-1.8H9.6ZM21.424,13.024a.6.6,0,0,0,0-.847l-2.4-2.4a.6.6,0,0,0-.847,0l-2.4,2.4a.6.6,0,1,0,.848.847L18,11.648V16.2a.6.6,0,1,0,1.2,0V11.648l1.376,1.376a.6.6,0,0,0,.847,0ZM0,6.6A.6.6,0,0,1,.6,6H13.8a.6.6,0,0,1,.6.6V7.8a.6.6,0,0,1-.6.6H.6A.6.6,0,0,1,0,7.8ZM13.2,18A1.2,1.2,0,0,1,12,19.2H2.4A1.2,1.2,0,0,1,1.2,18V9.6h12ZM5.4,12a.6.6,0,0,0,0,1.2H9A.6.6,0,1,0,9,12Z" fill="#146f62"/>
</svg>
