<svg xmlns="http://www.w3.org/2000/svg" width="24" height="16.8" viewBox="0 0 24 16.8">
  <path id="people-group-solid" d="M6.9,34.1A2.1,2.1,0,1,1,4.8,32,2.1,2.1,0,0,1,6.9,34.1Zm.915,4.061A5.39,5.39,0,0,0,6,42.2a5.188,5.188,0,0,0,1.2,3.394V46.4A1.2,1.2,0,0,1,6,47.6H3.6a1.2,1.2,0,0,1-1.2-1.2V45.4A4.2,4.2,0,0,1,4.2,37.4H5.4a4.262,4.262,0,0,1,2.415.761ZM2.4,40.014a2.4,2.4,0,0,0,0,3.173ZM16.8,46.4v-.806a5.4,5.4,0,0,0-.615-7.432A4.182,4.182,0,0,1,18.6,37.4h1.2A4.2,4.2,0,0,1,21.6,45.4V46.4a1.2,1.2,0,0,1-1.2,1.2H18A1.2,1.2,0,0,1,16.8,46.4Zm4.8-3.214a2.4,2.4,0,0,0,0-3.173ZM21.3,34.1A2.1,2.1,0,1,1,19.2,32,2.1,2.1,0,0,1,21.3,34.1Zm-11.7.3A2.4,2.4,0,1,1,12,36.8,2.4,2.4,0,0,1,9.6,34.4Zm7.2,7.8a4.2,4.2,0,0,1-2.4,3.795v1.6a1.2,1.2,0,0,1-1.2,1.2H10.8a1.2,1.2,0,0,1-1.2-1.2v-1.6A4.2,4.2,0,0,1,11.4,38h1.2A4.2,4.2,0,0,1,16.8,42.2ZM9.6,43.786V40.614a2.4,2.4,0,0,0,0,3.172Zm4.8-3.172v3.172a2.4,2.4,0,0,0,0-3.172Z" transform="translate(0 -32)" fill="#146f62"/>
</svg>
