<svg xmlns="http://www.w3.org/2000/svg" width="18.167" height="24.223" viewBox="0 0 18.167 24.223">
  <path id="file-contract-solid" d="M10.6,6.434V0H1.135A1.133,1.133,0,0,0,0,1.135V23.087a1.133,1.133,0,0,0,1.135,1.135h15.9a1.133,1.133,0,0,0,1.135-1.135V7.57H11.733A1.139,1.139,0,0,1,10.6,6.434ZM3.028,3.406a.378.378,0,0,1,.378-.378H7.191a.378.378,0,0,1,.378.378v.757a.378.378,0,0,1-.378.378H3.406a.378.378,0,0,1-.378-.378Zm0,3.028a.378.378,0,0,1,.378-.378H7.191a.378.378,0,0,1,.378.378v.757a.378.378,0,0,1-.378.378H3.406a.378.378,0,0,1-.378-.378ZM12.15,18.167h2.233a.757.757,0,0,1,0,1.514H12.15a2.034,2.034,0,0,1-1.828-1.129.524.524,0,0,0-.481-.308.516.516,0,0,0-.474.293L9,19.262a.756.756,0,0,1-.677.418l-.054,0a.754.754,0,0,1-.664-.515l-.8-2.387-.5,1.508a2.043,2.043,0,0,1-1.94,1.4H3.785a.757.757,0,1,1,0-1.514h.586a.53.53,0,0,0,.5-.362l.861-2.585a1.136,1.136,0,0,1,2.155,0l.657,1.97a2.123,2.123,0,0,1,3.122.67.54.54,0,0,0,.481.308Zm5.686-13.2L13.2.331A1.135,1.135,0,0,0,12.4,0h-.289V6.056h6.056V5.767A1.132,1.132,0,0,0,17.836,4.968Z" transform="translate(0 0)" fill="#146f62"/>
</svg>
