<svg xmlns="http://www.w3.org/2000/svg" width="18" height="18" viewBox="0 0 18 18">
  <path id="heading-solid" d="M0,33.286A1.284,1.284,0,0,1,1.286,32H5.143a1.286,1.286,0,0,1,0,2.571H4.5v4.5h9v-4.5h-.643a1.286,1.286,0,0,1,0-2.571h3.857a1.286,1.286,0,0,1,0,2.571h-.643V47.429h.643a1.286,1.286,0,0,1,0,2.571H12.857a1.286,1.286,0,1,1,0-2.571H13.5V41.643h-9v5.786h.643a1.286,1.286,0,1,1,0,2.571H1.286a1.286,1.286,0,1,1,0-2.571h.643V34.571H1.286A1.284,1.284,0,0,1,0,33.286Z" transform="translate(0 -32)"/>
</svg>
