<svg id="ic-piñata" xmlns="http://www.w3.org/2000/svg" width="18.437" height="23.984" viewBox="0 0 18.437 23.984">
  <g id="Group_160712" data-name="Group 160712" transform="translate(5.68 0)">
    <g id="Group_160709" data-name="Group 160709" transform="translate(0 0)">
      <path id="Path_4441" data-name="Path 4441" d="M181.656,2q0-.712.017-1.39a.6.6,0,0,0-1.2-.027q-.017.691-.017,1.417a48.985,48.985,0,0,0,1.3,11.688.6.6,0,0,0,.741.431.613.613,0,0,0,.417-.744A47.8,47.8,0,0,1,181.656,2Z" transform="translate(-180.456 0)" fill="#db765a"/>
    </g>
    <g id="Group_160710" data-name="Group 160710" transform="translate(0.166 6.336)">
      <path id="Path_4442" data-name="Path 4442" d="M185.867,143.059a.6.6,0,0,0,.434-.729,43.068,43.068,0,0,1-1.092-7.059c-.4-.005-.8.006-1.2.026a44.42,44.42,0,0,0,1.13,7.328.6.6,0,0,0,.729.434Z" transform="translate(-184.008 -135.269)" fill="#db765a"/>
    </g>
    <g id="Group_160711" data-name="Group 160711" transform="translate(0.004 0.121)">
      <path id="Path_4443" data-name="Path 4443" d="M181.741,4.463c0,.138,0,.276,0,.412l-1.2-1.1q0-.372.013-.734a.6.6,0,0,1,.239-.465l.953.868Q181.742,3.946,181.741,4.463Z" transform="translate(-180.546 -2.58)" fill="#b55434"/>
      <path id="Path_4444" data-name="Path 4444" d="M181.962,67.7,180.7,66.6q-.033-.736-.048-1.519l1.23,1.072Q181.912,66.953,181.962,67.7Z" transform="translate(-180.647 -62.153)" fill="#b55434"/>
      <path id="Path_4445" data-name="Path 4445" d="M185.449,137.942l-1.349-1.175q-.081-.764-.147-1.606l1.3,1.137C185.315,136.881,185.381,137.429,185.449,137.942Z" transform="translate(-183.793 -128.95)" fill="#b55434"/>
      <path id="Path_4446" data-name="Path 4446" d="M193.907,212.528l-1.494-1.3c-.095-.511-.192-1.088-.284-1.725l1.413,1.231C193.671,211.458,193.8,212.06,193.907,212.528Z" transform="translate(-191.586 -199.809)" fill="#b55434"/>
    </g>
  </g>
  <circle id="Ellipse_5" data-name="Ellipse 5" cx="1.523" cy="1.523" r="1.523" transform="translate(5.476 10.554)" fill="#ffaf40"/>
  <circle id="Ellipse_6" data-name="Ellipse 6" cx="1.005" cy="1.005" r="1.005" transform="translate(5.586 10.731)" fill="#ffc751"/>
  <g id="Group_160716" data-name="Group 160716" transform="translate(0 0)">
    <g id="Group_160715" data-name="Group 160715" transform="translate(0)">
      <g id="Group_160714" data-name="Group 160714">
        <g id="Group_160713" data-name="Group 160713">
          <path id="Path_4447" data-name="Path 4447" d="M88.328,416.994l-1.056-.186a.758.758,0,0,1-.615-.878l.36-2.04,2.548.449-.36,2.04A.758.758,0,0,1,88.328,416.994Z" transform="translate(-85.36 -394.503)" fill="#ffc751"/>
          <path id="Path_4448" data-name="Path 4448" d="M96.035,420.377l-.36,2.04a.758.758,0,0,1-.878.615l-1.056-.186a.754.754,0,0,1-.308-.129,2.192,2.192,0,0,0,1.737-2.491Z" transform="translate(-91.83 -400.54)" fill="#ffaf40"/>
          <path id="Path_4449" data-name="Path 4449" d="M267.594,420.537l-1.056-.186a.758.758,0,0,1-.615-.878l.6-3.419,2.548.449-.6,3.419A.758.758,0,0,1,267.594,420.537Z" transform="translate(-256.229 -396.565)" fill="#ffc751"/>
          <path id="Path_4450" data-name="Path 4450" d="M275.3,451.987l-.36,2.04a.758.758,0,0,1-.878.615l-1.056-.186a.754.754,0,0,1-.308-.129,2.191,2.191,0,0,0,1.737-2.491Z" transform="translate(-262.7 -430.67)" fill="#ffaf40"/>
          <path id="Path_4451" data-name="Path 4451" d="M322.166,15.731l-.382-1.13a.976.976,0,0,1,.022-.685l1.441-3.491a.207.207,0,0,1,.4.063,23.286,23.286,0,0,1-.1,5.163Z" transform="translate(-309.435 -9.814)" fill="#772dbd"/>
          <path id="Path_4452" data-name="Path 4452" d="M301.865,5.434l-.382-1.13a.976.976,0,0,1,.022-.685L302.946.127a.207.207,0,0,1,.4.063,23.286,23.286,0,0,1-.1,5.163Z" transform="translate(-290.085 0.001)" fill="#8f6bdd"/>
          <path id="Path_4453" data-name="Path 4453" d="M73.608,156.129l.009-3.008,1.694-9.607-4.535-3.13-1.187,6.631-6-1.407a2.521,2.521,0,0,0-3.058,2.016l-.546,3.095-.773,2.89a.191.191,0,0,0,.152.238l1.956.345a.191.191,0,0,0,.143-.032l.521-.365.325.508a.191.191,0,0,0,.128.085l1.454.256a.191.191,0,0,0,.172-.057l.656-.694.15.8a.191.191,0,0,0,.155.153l1.733.306a.191.191,0,0,0,.139-.029l.479-.319.259.435a.191.191,0,0,0,.131.09l1.363.24a.191.191,0,0,0,.2-.1l.408-.738.163.029.232.87a.191.191,0,0,0,.152.139l1.4.247a.191.191,0,0,0,.189-.078l.493-.7.1.779a.191.191,0,0,0,.156.164l.757.134A.191.191,0,0,0,73.608,156.129Z" transform="translate(-59.211 -133.807)" fill="#8f6bdd"/>
          <path id="Path_4454" data-name="Path 4454" d="M254.946,156.32l-.758-.134a.19.19,0,0,1-.156-.164l-.1-.779-.493.7a.192.192,0,0,1-.19.078l-1.4-.247a.191.191,0,0,1-.151-.139l-.233-.87-.163-.029-.408.738a.191.191,0,0,1-.2.1l-1-.176a9.07,9.07,0,0,0,2.476-14.079l.166-.929,4.535,3.13-1.694,9.607-.009,3.008A.191.191,0,0,1,254.946,156.32Z" transform="translate(-240.773 -133.81)" fill="#8042e0"/>
          <path id="Path_4455" data-name="Path 4455" d="M67.22,320.005l-.773,2.89a.191.191,0,0,0,.152.238l1.956.345a.191.191,0,0,0,.143-.032l.521-.365.325.508a.191.191,0,0,0,.128.085l1.454.256a.191.191,0,0,0,.172-.057l.656-.694.15.8a.191.191,0,0,0,.155.153l1.733.306a.191.191,0,0,0,.139-.029l.479-.319.259.435a.191.191,0,0,0,.131.091l1.363.24a.191.191,0,0,0,.2-.1l.513-.928.291,1.088a.191.191,0,0,0,.152.139l1.4.247a.191.191,0,0,0,.189-.078l.493-.7.1.779a.191.191,0,0,0,.156.164l.757.134a.191.191,0,0,0,.224-.188l.009-3.008Z" transform="translate(-66.102 -305.015)" fill="#f7a6c1"/>
          <path id="Path_4456" data-name="Path 4456" d="M302.461,368.33l-.758-.134a.19.19,0,0,1-.156-.164l-.1-.779-.493.7a.191.191,0,0,1-.19.078l-1.4-.247a.191.191,0,0,1-.151-.139l-.022-.083a9.018,9.018,0,0,0,1.785-2.731l1.719.3-.009,3.008A.191.191,0,0,1,302.461,368.33Z" transform="translate(-287.95 -347.741)" fill="#fc709b"/>
          <path id="Path_4457" data-name="Path 4457" d="M74.658,277.821l-.773,2.89a.191.191,0,0,0,.152.238l1.956.345a.191.191,0,0,0,.143-.032l.521-.365.325.508a.191.191,0,0,0,.128.085l1.454.256a.191.191,0,0,0,.172-.057l.656-.694.15.8a.191.191,0,0,0,.155.153l1.733.306a.192.192,0,0,0,.139-.029l.479-.319.259.435a.191.191,0,0,0,.131.091l1.363.24a.191.191,0,0,0,.2-.1l.513-.928.291,1.088a.191.191,0,0,0,.152.139l1.4.247a.191.191,0,0,0,.189-.078l.493-.7.1.779a.191.191,0,0,0,.156.164l.757.134a.191.191,0,0,0,.224-.188l.009-3.008Z" transform="translate(-73.192 -264.807)" fill="#27b2ff"/>
          <path id="Path_4458" data-name="Path 4458" d="M327.861,326.932l-.758-.134a.19.19,0,0,1-.156-.164l-.1-.779-.493.7a.192.192,0,0,1-.19.078l-.69-.122a9.048,9.048,0,0,0,1.121-3.04l1.5.264-.009,3.008A.191.191,0,0,1,327.861,326.932Z" transform="translate(-313 -308.319)" fill="#008cff"/>
          <path id="Path_4459" data-name="Path 4459" d="M81.06,247.27l-.221.827a.191.191,0,0,0,.152.238l1.956.345a.191.191,0,0,0,.143-.032l.521-.365.325.508a.191.191,0,0,0,.128.085l1.454.256a.191.191,0,0,0,.172-.057l.656-.694.15.8a.191.191,0,0,0,.155.153l1.733.306a.192.192,0,0,0,.139-.029L89,249.29l.259.435a.191.191,0,0,0,.131.09l1.363.24a.191.191,0,0,0,.2-.1l.513-.928.291,1.088a.191.191,0,0,0,.152.139l1.4.247a.191.191,0,0,0,.189-.078l.493-.7.1.779a.191.191,0,0,0,.156.164l.757.134a.191.191,0,0,0,.224-.188l.009-3.008-11.524-2.032A2.329,2.329,0,0,0,81.06,247.27Z" transform="translate(-79.819 -234.041)" fill="#5cceff"/>
          <path id="Path_4460" data-name="Path 4460" d="M344.479,286.818l-.758-.134a.19.19,0,0,1-.156-.164l-.1-.779-.493.7a.191.191,0,0,1-.19.078l-.215-.038a9.164,9.164,0,0,0,.455-3.157l1.691.3-.009,3.008A.191.191,0,0,1,344.479,286.818Z" transform="translate(-329.293 -270.052)" fill="#27b2ff"/>
          <path id="Path_4461" data-name="Path 4461" d="M271.624,232.688l.009-3.008-5.035-.888a.191.191,0,0,0-.216.132l-.841,2.7a.191.191,0,0,0,.149.245l1.457.257a.191.191,0,0,0,.2-.1l.513-.928.291,1.088a.191.191,0,0,0,.152.139l1.4.247a.191.191,0,0,0,.189-.078l.493-.7.1.779a.191.191,0,0,0,.156.164l.757.134A.191.191,0,0,0,271.624,232.688Z" transform="translate(-255.868 -218.071)" fill="#8f6bdd"/>
          <path id="Path_4462" data-name="Path 4462" d="M347.7,242.568l-.758-.134a.191.191,0,0,1-.156-.164l-.1-.779-.493.7a.191.191,0,0,1-.19.078l-.147-.026a8.995,8.995,0,0,0-.273-3.286l2.351.415-.009,3.008A.191.191,0,0,1,347.7,242.568Z" transform="translate(-332.168 -227.763)" fill="#8042e0"/>
          <path id="Path_4463" data-name="Path 4463" d="M279.024,183l.065-3.351-5.2-.917-.954,3.2a.191.191,0,0,0,.15.243l1.459.257a.191.191,0,0,0,.2-.1l.513-.928.291,1.088a.191.191,0,0,0,.152.139l1.4.247a.191.191,0,0,0,.189-.078l.493-.7.1.779a.191.191,0,0,0,.156.164l.761.134A.191.191,0,0,0,279.024,183Z" transform="translate(-262.915 -170.361)" fill="#f7a6c1"/>
          <path id="Path_4464" data-name="Path 4464" d="M324.171,187.73l-.761-.134a.19.19,0,0,1-.156-.164l-.1-.779-.493.7a.191.191,0,0,1-.19.078l-.521-.092a8.931,8.931,0,0,0-.247-1.24,9.059,9.059,0,0,0-1.174-2.6l3.933.694-.065,3.351A.192.192,0,0,1,324.171,187.73Z" transform="translate(-308.286 -174.905)" fill="#fc709b"/>
          <path id="Path_4465" data-name="Path 4465" d="M299.017,102.125l-.168.491a.77.77,0,0,1-.863.509l-2.344-.413a.191.191,0,0,1-.131-.091l-.39-.658a3.9,3.9,0,0,0-.547.466.19.19,0,0,1-.177.062l-1.3-.229a.191.191,0,0,1-.158-.182l-.013-.407-.456.406a.191.191,0,0,1-.16.045l-.59-.1a.191.191,0,0,1-.154-.226c.09-.45.324-1.633.544-2.883.174-.989,1.214-1.3,1.713-1.4a.679.679,0,0,1,.473.085l3.921,2.343A1.844,1.844,0,0,1,299.017,102.125Z" transform="translate(-280.68 -92.938)" fill="#ffc751"/>
        </g>
        <ellipse id="Ellipse_7" data-name="Ellipse 7" cx="1.199" cy="1.105" rx="1.199" ry="1.105" transform="matrix(0.174, -0.985, 0.985, 0.174, 12.56, 8.319)" fill="#f5faff"/>
        <circle id="Ellipse_8" data-name="Ellipse 8" cx="0.218" cy="0.218" r="0.218" transform="translate(13.694 7.085)" fill="#595751"/>
        <path id="Path_4466" data-name="Path 4466" d="M126.331,248.587l-4.787-.844a.862.862,0,0,1,.3-1.7l4.787.844a.862.862,0,0,1-.3,1.7Z" transform="translate(-117.945 -234.508)" fill="#73e1ff"/>
        <path id="Path_4467" data-name="Path 4467" d="M150.213,251.049l-.7-.124a.862.862,0,0,0-.3,1.7l.7.124a.862.862,0,0,0,.3-1.7Z" transform="translate(-144.317 -239.158)" fill="#b6f0ff"/>
      </g>
      <path id="Path_4468" data-name="Path 4468" d="M380.376,154.478l-.168.491a.771.771,0,0,1-.863.509L377,155.064a.19.19,0,0,1-.079-.034,3.414,3.414,0,0,0,2.848-2.6,1.844,1.844,0,0,1,.606,2.047Z" transform="translate(-362.039 -145.291)" fill="#ffaf40"/>
    </g>
  </g>
</svg>
