<svg id="ic-build" xmlns="http://www.w3.org/2000/svg" width="21.071" height="24.081" viewBox="0 0 21.071 24.081">
  <path id="building-regular_1_" data-name="building-regular (1)" d="M6.02,6.961V5.08a.566.566,0,0,1,.564-.564H8.466a.566.566,0,0,1,.564.564V6.961a.566.566,0,0,1-.564.564H6.585A.566.566,0,0,1,6.02,6.961Zm6.585.564h1.881a.566.566,0,0,0,.564-.564V5.08a.566.566,0,0,0-.564-.564H12.605a.566.566,0,0,0-.564.564V6.961A.566.566,0,0,0,12.605,7.525Zm-6.02,4.515H8.466a.566.566,0,0,0,.564-.564V9.595a.566.566,0,0,0-.564-.564H6.585a.566.566,0,0,0-.564.564v1.881A.566.566,0,0,0,6.585,12.041Zm6.02,0h1.881a.566.566,0,0,0,.564-.564V9.595a.566.566,0,0,0-.564-.564H12.605a.566.566,0,0,0-.564.564v1.881A.566.566,0,0,0,12.605,12.041ZM9.03,15.992V14.11a.566.566,0,0,0-.564-.564H6.585a.566.566,0,0,0-.564.564v1.881a.566.566,0,0,0,.564.564H8.466A.566.566,0,0,0,9.03,15.992Zm3.575.564h1.881a.566.566,0,0,0,.564-.564V14.11a.566.566,0,0,0-.564-.564H12.605a.566.566,0,0,0-.564.564v1.881A.566.566,0,0,0,12.605,16.556Zm8.466,5.832v1.693H0V22.388a.566.566,0,0,1,.564-.564h.917V1.129A1.126,1.126,0,0,1,2.61,0h15.85A1.126,1.126,0,0,1,19.59,1.129V21.824h.917A.566.566,0,0,1,21.071,22.388ZM3.739,21.777H9.03V18.625a.566.566,0,0,1,.564-.564h1.881a.566.566,0,0,1,.564.564v3.151h5.291V2.3L3.763,2.258Z" fill="#fff"/>
</svg>
