<svg id="ic-database" xmlns="http://www.w3.org/2000/svg" width="21" height="24" viewBox="0 0 21 24">
  <path id="database-solid_2_" data-name="database-solid (2)" d="M21,3.75V6c0,2.072-4.7,3.75-10.5,3.75S0,8.072,0,6V3.75C0,1.679,4.7,0,10.5,0S21,1.679,21,3.75Zm-2.569,6.314A9.792,9.792,0,0,0,21,8.723V13.5c0,2.072-4.7,3.75-10.5,3.75S0,15.572,0,13.5V8.723a9.185,9.185,0,0,0,2.571,1.341A24.423,24.423,0,0,0,10.5,11.25a24.457,24.457,0,0,0,7.931-1.186Zm-15.86,7.5A24.423,24.423,0,0,0,10.5,18.75a24.457,24.457,0,0,0,7.931-1.186A9.792,9.792,0,0,0,21,16.223V20.25C21,22.322,16.3,24,10.5,24S0,22.322,0,20.25V16.223A9.185,9.185,0,0,0,2.571,17.564Z" fill="#fff"/>
</svg>
