<svg id="ic-save" xmlns="http://www.w3.org/2000/svg" width="24" height="24" viewBox="0 0 24 24">
  <path id="save-regular" d="M23.247,37.247l-4.494-4.494A2.571,2.571,0,0,0,16.935,32H2.571A2.571,2.571,0,0,0,0,34.571V53.429A2.571,2.571,0,0,0,2.571,56H21.429A2.571,2.571,0,0,0,24,53.429V39.065a2.571,2.571,0,0,0-.753-1.818Zm-8.675-2.675v4.286H7.714V34.571Zm6.536,18.857H2.893a.321.321,0,0,1-.321-.321V34.893a.321.321,0,0,1,.321-.321h2.25v5.571a1.286,1.286,0,0,0,1.286,1.286h9.429a1.286,1.286,0,0,0,1.286-1.286V34.779l4.192,4.192a.321.321,0,0,1,.094.227V53.107A.321.321,0,0,1,21.107,53.429ZM12,42.714a4.714,4.714,0,1,0,4.714,4.714A4.72,4.72,0,0,0,12,42.714Zm0,6.857a2.143,2.143,0,1,1,2.143-2.143A2.145,2.145,0,0,1,12,49.571Z" transform="translate(0 -32)" fill="#fff"/>
</svg>
