<svg xmlns="http://www.w3.org/2000/svg" width="24" height="21.33" viewBox="0 0 24 21.33">
  <path id="door-open-solid_1_" data-name="door-open-solid (1)" d="M13.333,1.378a1.321,1.321,0,0,0-.512-1.05A1.344,1.344,0,0,0,11.675.086l-7.5,1.875A2,2,0,0,0,2.667,3.9V18.711H1.333a1.333,1.333,0,1,0,0,2.667h12v-20Zm-2.667,9.333c0,.738-.446,1.333-1,1.333s-1-.6-1-1.333.446-1.333,1-1.333S10.667,9.973,10.667,10.711Zm4-5.333h4v16h4a1.333,1.333,0,0,0,0-2.667H21.333V5.378a2.669,2.669,0,0,0-2.667-2.667h-4Z" transform="translate(0 -0.047)" fill="#fff"/>
</svg>
