<svg id="ic-logo-pdf" xmlns="http://www.w3.org/2000/svg" width="21.045" height="24.051" viewBox="0 0 21.045 24.051">
  <path id="Path_4690" data-name="Path 4690" d="M97.5,0A1.508,1.508,0,0,0,96,1.5V22.548a1.508,1.508,0,0,0,1.5,1.5h15.032a1.508,1.508,0,0,0,1.5-1.5V6.013L108.026,0Z" transform="translate(-92.994)" fill="#e2e5e7"/>
  <path id="Path_4691" data-name="Path 4691" d="M353.5,6.013h4.51L352,0V4.51A1.508,1.508,0,0,0,353.5,6.013Z" transform="translate(-336.969)" fill="#b0b7bd"/>
  <path id="Path_4692" data-name="Path 4692" d="M388.51,132.51,384,128h4.51Z" transform="translate(-367.465 -121.986)" fill="#cad1d8"/>
  <path id="Path_4693" data-name="Path 4693" d="M50.039,248.268a.754.754,0,0,1-.752.752H32.752a.754.754,0,0,1-.752-.752v-7.516a.754.754,0,0,1,.752-.752H49.287a.754.754,0,0,1,.752.752Z" transform="translate(-32 -228.727)" fill="#f15642"/>
  <g id="Group_162712" data-name="Group 162712" transform="translate(3.275 13.826)">
    <path id="Path_4694" data-name="Path 4694" d="M101.744,294.735a.414.414,0,0,1,.408-.415h1.388a1.5,1.5,0,0,1,0,3h-1v.794a.377.377,0,0,1-.385.414.4.4,0,0,1-.408-.414Zm.793.342v1.5h1a.749.749,0,0,0,0-1.5Z" transform="translate(-101.744 -294.32)" fill="#fff"/>
    <path id="Path_4695" data-name="Path 4695" d="M188.239,299.631a.376.376,0,0,1-.415-.372v-3.414a.409.409,0,0,1,.415-.373h1.376c2.746,0,2.686,4.159.054,4.159Zm.379-3.425V298.9h1c1.623,0,1.695-2.692,0-2.692Z" transform="translate(-183.78 -295.418)" fill="#fff"/>
    <path id="Path_4696" data-name="Path 4696" d="M287.922,296.238v.955h1.533a.465.465,0,0,1,.433.426.418.418,0,0,1-.433.361h-1.533v1.262a.356.356,0,0,1-.36.372.382.382,0,0,1-.426-.372v-3.414a.38.38,0,0,1,.426-.373h2.11a.375.375,0,0,1,.421.373.415.415,0,0,1-.421.409h-1.75Z" transform="translate(-278.427 -295.403)" fill="#fff"/>
  </g>
  <path id="Path_4697" data-name="Path 4697" d="M110.28,416.752H96v.752h14.28a.754.754,0,0,0,.752-.752V416A.754.754,0,0,1,110.28,416.752Z" transform="translate(-92.994 -396.459)" fill="#cad1d8"/>
</svg>
