<svg id="ic-enter" xmlns="http://www.w3.org/2000/svg" width="20" height="15.314" viewBox="0 0 20 15.314">
  <path id="sign-in-alt-solid" d="M16.25,79H12.969a.47.47,0,0,1-.469-.469V76.969a.47.47,0,0,1,.469-.469H16.25a1.249,1.249,0,0,0,1.25-1.25v-7.5a1.249,1.249,0,0,0-1.25-1.25H12.969a.47.47,0,0,1-.469-.469V64.469A.47.47,0,0,1,12.969,64H16.25A3.751,3.751,0,0,1,20,67.75v7.5A3.751,3.751,0,0,1,16.25,79Zm-1.836-7.852L7.852,64.586a.939.939,0,0,0-1.6.664V69H.938A.935.935,0,0,0,0,69.938v3.75a.935.935,0,0,0,.938.938H6.25v3.75a.939.939,0,0,0,1.6.664l6.563-6.562A.945.945,0,0,0,14.414,71.148Z" transform="translate(0 -64)" fill="#146f62"/>
</svg>
