<svg xmlns="http://www.w3.org/2000/svg" width="14.997" height="20" viewBox="0 0 14.997 20">
  <g id="Group_168310" data-name="Group 168310" transform="translate(15440.004 23335)">
    <g id="ic-car" transform="translate(-15436.506 -23326.967)">
      <path id="car-solid" d="M7.816,65.9H6.88l-.26-.7A1.748,1.748,0,0,0,5,64H3.011a1.749,1.749,0,0,0-1.625,1.192l-.26.7H.191a.2.2,0,0,0-.182.252l.094.406a.191.191,0,0,0,.182.154H.6a1.115,1.115,0,0,0-.345.813v.813a1.127,1.127,0,0,0,.25.71v.915A.522.522,0,0,0,1,70.5h.5a.522.522,0,0,0,.5-.542v-.542H6v.542a.522.522,0,0,0,.5.542H7a.522.522,0,0,0,.5-.542v-.915a1.126,1.126,0,0,0,.25-.71v-.812a1.115,1.115,0,0,0-.345-.812h.314a.191.191,0,0,0,.182-.154L8,66.148A.2.2,0,0,0,7.816,65.9Zm-5.5-.3a.753.753,0,0,1,.7-.511H5a.753.753,0,0,1,.7.511L6,66.438H2ZM1.5,68.33a.542.542,0,0,1,0-1.08,1,1,0,0,1,.75.81C2.254,68.384,1.8,68.33,1.5,68.33Zm5,0c-.3,0-.75.054-.75-.27a1,1,0,0,1,.75-.81.542.542,0,0,1,0,1.08Z" transform="translate(-0.004 -64)" fill="#fff"/>
    </g>
    <g id="ic-file" transform="translate(-15440.004 -23335)">
      <path id="file-regular" d="M14.447,3.727,11.17.451A1.875,1.875,0,0,0,9.846-.1H1.875A1.881,1.881,0,0,0,0,1.779V18.026A1.875,1.875,0,0,0,1.875,19.9H13.123A1.875,1.875,0,0,0,15,18.026V5.055a1.884,1.884,0,0,0-.551-1.328ZM12.97,4.9H10V1.931ZM1.875,18.026V1.779H8.124V5.84a.935.935,0,0,0,.937.937h4.062V18.026Z" transform="translate(0 0.1)" fill="#fff"/>
    </g>
  </g>
</svg>
