<svg id="ic-announcement" xmlns="http://www.w3.org/2000/svg" width="20" height="15.556" viewBox="0 0 20 15.556">
  <path id="scroll-solid" d="M0,33.667v1.667a1.11,1.11,0,0,0,1.111,1.111H3.333V33.667a1.667,1.667,0,0,0-3.333,0ZM3.889,32a2.778,2.778,0,0,1,.556,1.667V44.222a2.222,2.222,0,0,0,4.444,0v-.184A2.039,2.039,0,0,1,10.927,42h5.74V35.333A3.334,3.334,0,0,0,13.333,32ZM16.111,47.556A3.887,3.887,0,0,0,20,43.667a.557.557,0,0,0-.556-.556H10.927a.927.927,0,0,0-.927.927v.184a3.334,3.334,0,0,1-3.333,3.333h9.444Z" transform="translate(0 -32)" fill="#146f62"/>
</svg>
