<svg xmlns="http://www.w3.org/2000/svg" width="20" height="17.776" viewBox="0 0 20 17.776">
  <path id="door-open-solid_1_" data-name="door-open-solid (1)" d="M11.111,1.156a1.1,1.1,0,0,0-.427-.875,1.12,1.12,0,0,0-.955-.2L3.483,1.642a1.664,1.664,0,0,0-1.26,1.615V15.6H1.111a1.111,1.111,0,1,0,0,2.222h10V1.156ZM8.889,8.933c0,.615-.372,1.111-.833,1.111s-.833-.5-.833-1.111.372-1.111.833-1.111S8.889,8.319,8.889,8.933Zm3.333-4.444h3.333V17.822h3.333a1.111,1.111,0,0,0,0-2.222H17.778V4.489a2.224,2.224,0,0,0-2.222-2.222H12.222Z" transform="translate(0 -0.046)" fill="#146f62"/>
</svg>
