<svg xmlns="http://www.w3.org/2000/svg" width="17.5" height="20" viewBox="0 0 17.5 20">
  <path id="database-solid_2_" data-name="database-solid (2)" d="M17.5,3.125V5c0,1.727-3.918,3.125-8.75,3.125S0,6.727,0,5V3.125C0,1.4,3.918,0,8.75,0S17.5,1.4,17.5,3.125ZM15.359,8.387A8.16,8.16,0,0,0,17.5,7.27v3.98c0,1.727-3.918,3.125-8.75,3.125S0,12.977,0,11.25V7.27A7.654,7.654,0,0,0,2.143,8.387a20.353,20.353,0,0,0,6.607.988,20.381,20.381,0,0,0,6.609-.988ZM2.143,14.637a20.353,20.353,0,0,0,6.607.988,20.381,20.381,0,0,0,6.609-.988A8.16,8.16,0,0,0,17.5,13.52v3.355C17.5,18.6,13.582,20,8.75,20S0,18.6,0,16.875V13.52A7.654,7.654,0,0,0,2.143,14.637Z" fill="#146f62"/>
</svg>
