<svg id="ic-build" xmlns="http://www.w3.org/2000/svg" width="17.5" height="20" viewBox="0 0 17.5 20">
  <path id="building-regular_1_" data-name="building-regular (1)" d="M5,5.781V4.219a.47.47,0,0,1,.469-.469H7.031a.47.47,0,0,1,.469.469V5.781a.47.47,0,0,1-.469.469H5.469A.47.47,0,0,1,5,5.781Zm5.469.469h1.562a.47.47,0,0,0,.469-.469V4.219a.47.47,0,0,0-.469-.469H10.469A.47.47,0,0,0,10,4.219V5.781A.47.47,0,0,0,10.469,6.25Zm-5,3.75H7.031A.47.47,0,0,0,7.5,9.531V7.969A.47.47,0,0,0,7.031,7.5H5.469A.47.47,0,0,0,5,7.969V9.531A.47.47,0,0,0,5.469,10Zm5,0h1.562a.47.47,0,0,0,.469-.469V7.969a.47.47,0,0,0-.469-.469H10.469A.47.47,0,0,0,10,7.969V9.531A.47.47,0,0,0,10.469,10ZM7.5,13.281V11.719a.47.47,0,0,0-.469-.469H5.469A.47.47,0,0,0,5,11.719v1.563a.47.47,0,0,0,.469.469H7.031A.47.47,0,0,0,7.5,13.281Zm2.969.469h1.562a.47.47,0,0,0,.469-.469V11.719a.47.47,0,0,0-.469-.469H10.469a.47.47,0,0,0-.469.469v1.563A.47.47,0,0,0,10.469,13.75ZM17.5,18.594V20H0V18.594a.47.47,0,0,1,.469-.469H1.23V.938A.935.935,0,0,1,2.168,0H15.332a.935.935,0,0,1,.938.938V18.125h.762A.47.47,0,0,1,17.5,18.594ZM3.105,18.086H7.5V15.469A.47.47,0,0,1,7.969,15H9.531a.47.47,0,0,1,.469.469v2.617h4.395V1.914L3.125,1.875Z" fill="#146f62"/>
</svg>
