<svg xmlns="http://www.w3.org/2000/svg" width="15" height="20" viewBox="0 0 15 20">
  <path id="file-contract-solid" d="M8.75,5.313V0H.938A.935.935,0,0,0,0,.938V19.063A.935.935,0,0,0,.938,20H14.063A.935.935,0,0,0,15,19.063V6.25H9.688A.94.94,0,0,1,8.75,5.313ZM2.5,2.812A.312.312,0,0,1,2.812,2.5H5.938a.312.312,0,0,1,.313.312v.625a.312.312,0,0,1-.312.313H2.812A.312.312,0,0,1,2.5,3.438Zm0,2.5A.312.312,0,0,1,2.812,5H5.938a.312.312,0,0,1,.313.313v.625a.312.312,0,0,1-.312.313H2.812A.312.312,0,0,1,2.5,5.938ZM10.032,15h1.843a.625.625,0,0,1,0,1.25H10.032a1.679,1.679,0,0,1-1.509-.932.433.433,0,0,0-.4-.255.426.426,0,0,0-.391.242l-.3.6a.624.624,0,0,1-.559.345l-.045,0a.623.623,0,0,1-.548-.425l-.657-1.971L5.211,15.1a1.686,1.686,0,0,1-1.6,1.154H3.125a.625.625,0,1,1,0-1.25h.484a.438.438,0,0,0,.416-.3l.711-2.134a.938.938,0,0,1,1.779,0l.542,1.627a1.753,1.753,0,0,1,2.578.553.446.446,0,0,0,.4.254ZM14.727,4.1,10.9.273A.937.937,0,0,0,10.238,0H10V5h5V4.762A.935.935,0,0,0,14.727,4.1Z" fill="#146f62"/>
</svg>
