<svg xmlns="http://www.w3.org/2000/svg" width="20" height="15.556" viewBox="0 0 20 15.556">
  <path id="diagram-project-solid_1_" data-name="diagram-project-solid (1)" d="M0,33.667A1.667,1.667,0,0,1,1.667,32H5a1.667,1.667,0,0,1,1.667,1.667v.556h6.667v-.556A1.667,1.667,0,0,1,15,32h3.333A1.667,1.667,0,0,1,20,33.667V37a1.667,1.667,0,0,1-1.667,1.667H15A1.667,1.667,0,0,1,13.333,37v-.556H6.667V37a1.413,1.413,0,0,1-.01.174l2.788,3.715h3.333a1.667,1.667,0,0,1,1.667,1.667v3.333a1.667,1.667,0,0,1-1.667,1.667H9.444a1.667,1.667,0,0,1-1.667-1.667V42.556a1.413,1.413,0,0,1,.01-.174L5,38.667H1.667A1.667,1.667,0,0,1,0,37Z" transform="translate(0 -32)" fill="#146f62"/>
</svg>
