<svg xmlns="http://www.w3.org/2000/svg" width="20" height="14" viewBox="0 0 20 14">
  <path id="people-group-solid" d="M5.75,33.75A1.75,1.75,0,1,1,4,32,1.751,1.751,0,0,1,5.75,33.75Zm.762,3.384A4.492,4.492,0,0,0,5,40.5a4.324,4.324,0,0,0,1,2.828V44a1,1,0,0,1-1,1H3a1,1,0,0,1-1-1v-.838A3.5,3.5,0,0,1,3.5,36.5h1a3.551,3.551,0,0,1,2.012.634ZM2,38.678a2,2,0,0,0,0,2.644ZM14,44v-.672a4.5,4.5,0,0,0-.512-6.194A3.485,3.485,0,0,1,15.5,36.5h1A3.5,3.5,0,0,1,18,43.162V44a1,1,0,0,1-1,1H15A1,1,0,0,1,14,44Zm4-2.678a2,2,0,0,0,0-2.644Zm-.25-7.572A1.75,1.75,0,1,1,16,32,1.751,1.751,0,0,1,17.75,33.75ZM8,34a2,2,0,1,1,2,2A2,2,0,0,1,8,34Zm6,6.5a3.5,3.5,0,0,1-2,3.162V45a1,1,0,0,1-1,1H9a1,1,0,0,1-1-1V43.662A3.5,3.5,0,0,1,9.5,37h1A3.5,3.5,0,0,1,14,40.5ZM8,41.822V39.178a2,2,0,0,0,0,2.644Zm4-2.644v2.644a2,2,0,0,0,0-2.644Z" transform="translate(0 -32)" fill="#146f62"/>
</svg>
