<svg xmlns="http://www.w3.org/2000/svg" width="20" height="17.778" viewBox="0 0 20 17.778">
  <path id="hand-holding-medical-solid" d="M7.778.833V2.778H5.833A.831.831,0,0,0,5,3.611V5.278a.831.831,0,0,0,.833.833H7.778V8.056a.831.831,0,0,0,.833.833h1.667a.831.831,0,0,0,.833-.833V6.111h1.944a.831.831,0,0,0,.833-.833V3.611a.831.831,0,0,0-.833-.833H11.111V.833A.831.831,0,0,0,10.278,0H8.611A.831.831,0,0,0,7.778.833ZM19.434,13.618a1.388,1.388,0,0,0-1.646-2.236l-4.156,3.063H9.445a.556.556,0,1,1,0-1.111h2.778a1.111,1.111,0,0,0,0-2.222h-5.5a4.456,4.456,0,0,0-2.778.972l-1.559,1.25H1.111A1.11,1.11,0,0,0,0,14.445v2.222a1.11,1.11,0,0,0,1.111,1.111H12.24a4.734,4.734,0,0,0,2.8-.92l4.4-3.24ZM6.691,13.333h0Z" fill="#fff"/>
</svg>
