<svg xmlns="http://www.w3.org/2000/svg" width="20" height="16" viewBox="0 0 20 16">
  <path id="boxes-packing-solid" d="M8,1.5A1.5,1.5,0,0,1,9.5,0h9A1.5,1.5,0,0,1,20,1.5v13A1.5,1.5,0,0,1,18.5,16H11.916A1.7,1.7,0,0,0,12,15.5V7.916A1.5,1.5,0,0,0,13,6.5v-1A1.5,1.5,0,0,0,11.5,4H8Zm9.853,9.353a.5.5,0,0,0,0-.706l-2-2a.5.5,0,0,0-.706,0l-2,2a.5.5,0,0,0,.706.706L15,9.706V13.5a.5.5,0,1,0,1,0V9.706l1.147,1.147a.5.5,0,0,0,.706,0ZM0,5.5A.5.5,0,0,1,.5,5h11a.5.5,0,0,1,.5.5v1a.5.5,0,0,1-.5.5H.5A.5.5,0,0,1,0,6.5ZM11,15a1,1,0,0,1-1,1H2a1,1,0,0,1-1-1V8H11ZM4.5,10a.5.5,0,0,0,0,1h3a.5.5,0,0,0,0-1Z" fill="#146f62"/>
</svg>
