<svg xmlns="http://www.w3.org/2000/svg" width="14.997" height="20" viewBox="0 0 14.997 20">
  <g id="Group_168309" data-name="Group 168309" transform="translate(8268 17984)">
    <g id="ic-file" transform="translate(-8268 -17984)">
      <path id="file-regular" d="M14.447,3.727,11.17.451A1.875,1.875,0,0,0,9.846-.1H1.875A1.881,1.881,0,0,0,0,1.779V18.026A1.875,1.875,0,0,0,1.875,19.9H13.123A1.875,1.875,0,0,0,15,18.026V5.055a1.884,1.884,0,0,0-.551-1.328ZM12.97,4.9H10V1.931ZM1.875,18.026V1.779H8.124V5.84a.935.935,0,0,0,.937.937h4.062V18.026Z" transform="translate(0 0.1)" fill="#fff"/>
    </g>
    <path id="user-solid" d="M3.466,3.9A1.966,1.966,0,0,0,5.447,1.951a1.981,1.981,0,0,0-3.962,0A1.966,1.966,0,0,0,3.466,3.9Zm1.387.488H4.595a2.731,2.731,0,0,1-2.256,0H2.08A2.065,2.065,0,0,0,0,6.439v.634A.737.737,0,0,0,.743,7.8H6.19a.737.737,0,0,0,.743-.732V6.439A2.065,2.065,0,0,0,4.853,4.39Z" transform="translate(-8264 -17975.902)" fill="#fff"/>
  </g>
</svg>
