<svg id="ic-enter" xmlns="http://www.w3.org/2000/svg" width="48" height="36.754" viewBox="0 0 48 36.754">
  <path id="sign-in-alt-solid" d="M39,100H31.125A1.128,1.128,0,0,1,30,98.875v-3.75A1.128,1.128,0,0,1,31.125,94H39a3,3,0,0,0,3-3V73a3,3,0,0,0-3-3H31.125A1.128,1.128,0,0,1,30,68.875v-3.75A1.128,1.128,0,0,1,31.125,64H39a9,9,0,0,1,9,9V91A9,9,0,0,1,39,100ZM34.594,81.156l-15.75-15.75A2.254,2.254,0,0,0,15,67v9H2.25A2.245,2.245,0,0,0,0,78.25v9A2.245,2.245,0,0,0,2.25,89.5H15v9a2.254,2.254,0,0,0,3.844,1.594l15.75-15.75A2.269,2.269,0,0,0,34.594,81.156Z" transform="translate(0 -64)" fill="#707070"/>
</svg>
