<svg xmlns="http://www.w3.org/2000/svg" width="92" height="81.77" viewBox="0 0 92 81.77">
  <path id="door-open-solid_1_" data-name="door-open-solid (1)" d="M51.111,5.15a5.062,5.062,0,0,0-1.965-4.025A5.153,5.153,0,0,0,44.754.2L16.02,7.386a7.656,7.656,0,0,0-5.8,7.427V71.594H5.111a5.111,5.111,0,1,0,0,10.222h46V5.15ZM40.889,40.928c0,2.827-1.709,5.111-3.833,5.111s-3.833-2.284-3.833-5.111,1.709-5.111,3.833-5.111S40.889,38.1,40.889,40.928ZM56.222,20.483H71.556V81.817H86.889a5.111,5.111,0,0,0,0-10.222H81.778V20.483A10.232,10.232,0,0,0,71.556,10.261H56.222Z" transform="translate(0 -0.046)" fill="#fff"/>
</svg>
