<svg id="ic-build" xmlns="http://www.w3.org/2000/svg" width="80.428" height="91.917" viewBox="0 0 80.428 91.917">
  <path id="building-regular_1_" data-name="building-regular (1)" d="M22.979,26.57V19.389a2.161,2.161,0,0,1,2.154-2.154h7.181a2.161,2.161,0,0,1,2.154,2.154V26.57a2.161,2.161,0,0,1-2.154,2.154H25.134A2.161,2.161,0,0,1,22.979,26.57Zm25.134,2.154h7.181a2.161,2.161,0,0,0,2.154-2.154V19.389a2.161,2.161,0,0,0-2.154-2.154H48.113a2.161,2.161,0,0,0-2.154,2.154V26.57A2.161,2.161,0,0,0,48.113,28.724ZM25.134,45.959h7.181A2.161,2.161,0,0,0,34.469,43.8V36.623a2.161,2.161,0,0,0-2.154-2.154H25.134a2.161,2.161,0,0,0-2.154,2.154V43.8A2.161,2.161,0,0,0,25.134,45.959Zm22.979,0h7.181A2.161,2.161,0,0,0,57.448,43.8V36.623a2.161,2.161,0,0,0-2.154-2.154H48.113a2.161,2.161,0,0,0-2.154,2.154V43.8A2.161,2.161,0,0,0,48.113,45.959ZM34.469,61.039V53.858A2.161,2.161,0,0,0,32.315,51.7H25.134a2.161,2.161,0,0,0-2.154,2.154v7.181a2.161,2.161,0,0,0,2.154,2.154h7.181A2.161,2.161,0,0,0,34.469,61.039Zm13.644,2.154h7.181a2.161,2.161,0,0,0,2.154-2.154V53.858A2.161,2.161,0,0,0,55.294,51.7H48.113a2.161,2.161,0,0,0-2.154,2.154v7.181A2.161,2.161,0,0,0,48.113,63.193ZM80.428,85.454v6.463H0V85.454A2.161,2.161,0,0,1,2.154,83.3h3.5V4.309A4.3,4.3,0,0,1,9.964,0h60.5a4.3,4.3,0,0,1,4.309,4.309V83.3h3.5A2.161,2.161,0,0,1,80.428,85.454ZM14.272,83.12h20.2V71.092a2.161,2.161,0,0,1,2.154-2.154H43.8a2.161,2.161,0,0,1,2.154,2.154V83.12h20.2V8.8l-51.793-.18Z" fill="#fff"/>
</svg>
