<svg xmlns="http://www.w3.org/2000/svg" width="69" height="92" viewBox="0 0 69 92">
  <path id="file-contract-solid" d="M40.25,24.438V0H4.313A4.3,4.3,0,0,0,0,4.313V87.688A4.3,4.3,0,0,0,4.313,92H64.688A4.3,4.3,0,0,0,69,87.688V28.75H44.563A4.325,4.325,0,0,1,40.25,24.438ZM11.5,12.937A1.437,1.437,0,0,1,12.937,11.5H27.313a1.437,1.437,0,0,1,1.437,1.437v2.875a1.437,1.437,0,0,1-1.437,1.438H12.937A1.437,1.437,0,0,1,11.5,15.813Zm0,11.5A1.437,1.437,0,0,1,12.937,23H27.313a1.437,1.437,0,0,1,1.437,1.438v2.875a1.437,1.437,0,0,1-1.437,1.437H12.937A1.437,1.437,0,0,1,11.5,27.313ZM46.146,69h8.479a2.875,2.875,0,0,1,0,5.75H46.146A7.725,7.725,0,0,1,39.2,70.463a1.991,1.991,0,0,0-1.827-1.172,1.96,1.96,0,0,0-1.8,1.112L34.2,73.16a2.873,2.873,0,0,1-2.571,1.588c-.068,0-.135,0-.2-.009A2.865,2.865,0,0,1,28.9,72.782l-3.024-9.067-1.906,5.728A7.758,7.758,0,0,1,16.6,74.75H14.375a2.875,2.875,0,1,1,0-5.75H16.6a2.014,2.014,0,0,0,1.912-1.376l3.269-9.818a4.314,4.314,0,0,1,8.185,0l2.494,7.482A8.063,8.063,0,0,1,44.32,67.832,2.05,2.05,0,0,0,46.146,69Zm21.6-50.133L50.151,1.258A4.309,4.309,0,0,0,47.1,0H46V23H69V21.9A4.3,4.3,0,0,0,67.742,18.867Z" fill="#fff"/>
</svg>
