<svg xmlns="http://www.w3.org/2000/svg" width="80.5" height="92" viewBox="0 0 80.5 92">
  <path id="database-solid_2_" data-name="database-solid (2)" d="M80.5,14.375V23c0,7.942-18.023,14.375-40.25,14.375S0,30.942,0,23V14.375C0,6.436,18.023,0,40.25,0S80.5,6.436,80.5,14.375Zm-9.847,24.2A37.536,37.536,0,0,0,80.5,33.44V51.75c0,7.942-18.023,14.375-40.25,14.375S0,59.692,0,51.75V33.44a35.208,35.208,0,0,0,9.856,5.139c8.052,2.875,18.8,4.546,30.394,4.546s22.335-1.671,30.4-4.546Zm-60.8,28.75c8.052,2.875,18.8,4.546,30.394,4.546s22.335-1.671,30.4-4.546A37.537,37.537,0,0,0,80.5,62.19V77.625C80.5,85.567,62.477,92,40.25,92S0,85.567,0,77.625V62.19A35.208,35.208,0,0,0,9.856,67.329Z" fill="#fff"/>
</svg>
