<svg xmlns="http://www.w3.org/2000/svg" width="92" height="64.4" viewBox="0 0 92 64.4">
  <path id="people-group-solid" d="M26.45,40.05A8.05,8.05,0,1,1,18.4,32,8.055,8.055,0,0,1,26.45,40.05Zm3.508,15.568A20.663,20.663,0,0,0,23,71.1a19.889,19.889,0,0,0,4.6,13.009V87.2A4.6,4.6,0,0,1,23,91.8H13.8a4.6,4.6,0,0,1-4.6-4.6V83.348A16.1,16.1,0,0,1,16.1,52.7h4.6a16.337,16.337,0,0,1,9.257,2.918ZM9.2,62.719a9.188,9.188,0,0,0,0,12.161ZM64.4,87.2V84.109a20.7,20.7,0,0,0-2.357-28.491A16.03,16.03,0,0,1,71.3,52.7h4.6a16.1,16.1,0,0,1,6.9,30.647V87.2a4.6,4.6,0,0,1-4.6,4.6H69A4.6,4.6,0,0,1,64.4,87.2ZM82.8,74.881a9.188,9.188,0,0,0,0-12.161ZM81.65,40.05A8.05,8.05,0,1,1,73.6,32,8.055,8.055,0,0,1,81.65,40.05ZM36.8,41.2A9.2,9.2,0,1,1,46,50.4,9.2,9.2,0,0,1,36.8,41.2ZM64.4,71.1a16.107,16.107,0,0,1-9.2,14.547V91.8a4.6,4.6,0,0,1-4.6,4.6H41.4a4.6,4.6,0,0,1-4.6-4.6V85.647A16.1,16.1,0,0,1,43.7,55h4.6A16.092,16.092,0,0,1,64.4,71.1ZM36.8,77.181V65.019a9.188,9.188,0,0,0,0,12.161ZM55.2,65.019V77.181a9.188,9.188,0,0,0,0-12.161Z" transform="translate(0 -32)" fill="#fff"/>
</svg>
