<svg id="ic-announcement" xmlns="http://www.w3.org/2000/svg" width="48" height="37.333" viewBox="0 0 48 37.333">
  <path id="scroll-solid" d="M0,36v4a2.664,2.664,0,0,0,2.667,2.667H8V36a4,4,0,0,0-8,0Zm9.333-4a6.668,6.668,0,0,1,1.333,4V61.333a5.333,5.333,0,1,0,10.667,0v-.442A4.894,4.894,0,0,1,26.225,56H40V40a8,8,0,0,0-8-8ZM38.667,69.333A9.329,9.329,0,0,0,48,60a1.337,1.337,0,0,0-1.333-1.333H26.225A2.225,2.225,0,0,0,24,60.892v.442a8,8,0,0,1-8,8H38.667Z" transform="translate(0 -32)" fill="#707070"/>
</svg>
