<svg xmlns="http://www.w3.org/2000/svg" width="50.688" height="50.011" viewBox="0 0 50.688 50.011">
  <g id="Group_168279" data-name="Group 168279" transform="translate(8324 18065.01)">
    <path id="circle-notch-solid" d="M35.485,17.371v1.635a2.357,2.357,0,0,0,1.736,2.264,18.062,18.062,0,1,1-9.755,0A2.357,2.357,0,0,0,29.2,19.006V17.372a2.358,2.358,0,0,0-2.949-2.281,24.344,24.344,0,1,0,12.156-.006A2.352,2.352,0,0,0,35.485,17.371Z" transform="translate(-8331 -18079.01)" fill="none" stroke="#707070" stroke-width="2"/>
    <g id="Ellipse_150" data-name="Ellipse 150" transform="translate(-8312 -18054)" fill="#707070" stroke="#707070" stroke-width="1">
      <circle cx="13.5" cy="13.5" r="13.5" stroke="none"/>
      <circle cx="13.5" cy="13.5" r="13" fill="none"/>
    </g>
  </g>
</svg>
