<svg xmlns="http://www.w3.org/2000/svg" width="48" height="42.667" viewBox="0 0 48 42.667">
  <path id="hand-holding-medical-solid" d="M18.667,2V6.667H14a2,2,0,0,0-2,2v4a2,2,0,0,0,2,2h4.667v4.667a2,2,0,0,0,2,2h4a2,2,0,0,0,2-2V14.667h4.667a2,2,0,0,0,2-2v-4a2,2,0,0,0-2-2H26.667V2a2,2,0,0,0-2-2h-4A2,2,0,0,0,18.667,2ZM46.642,32.684a3.332,3.332,0,0,0-3.95-5.367l-9.975,7.35H22.667a1.333,1.333,0,1,1,0-2.667h6.667a2.667,2.667,0,0,0,0-5.333H16.142A10.7,10.7,0,0,0,9.475,29L5.733,32H2.667A2.664,2.664,0,0,0,0,34.667V40a2.664,2.664,0,0,0,2.667,2.667H29.375A11.362,11.362,0,0,0,36.1,40.459l10.55-7.775ZM16.059,32h0Z" fill="#707070"/>
</svg>
