<svg id="id-badge" xmlns="http://www.w3.org/2000/svg" width="36" height="48" viewBox="0 0 36 48">
  <path id="id-badge-solid" d="M31.5,0H4.5A4.5,4.5,0,0,0,0,4.5v39A4.5,4.5,0,0,0,4.5,48h27A4.5,4.5,0,0,0,36,43.5V4.5A4.5,4.5,0,0,0,31.5,0Zm-18,3h9a1.5,1.5,0,0,1,0,3h-9a1.5,1.5,0,1,1,0-3ZM18,15a6,6,0,1,1-6,6A6.006,6.006,0,0,1,18,15ZM28.5,37.2A1.966,1.966,0,0,1,26.4,39H9.6a1.966,1.966,0,0,1-2.1-1.8V35.4c0-2.981,2.822-5.4,6.3-5.4h.469a9.656,9.656,0,0,0,7.463,0H22.2c3.478,0,6.3,2.419,6.3,5.4Z" fill="#707070"/>
</svg>
