<svg xmlns="http://www.w3.org/2000/svg" width="92" height="73.6" viewBox="0 0 92 73.6">
  <path id="boxes-packing-solid" d="M36.8,6.9A6.9,6.9,0,0,1,43.7,0H85.1A6.9,6.9,0,0,1,92,6.9V66.7a6.9,6.9,0,0,1-6.9,6.9H54.812a7.8,7.8,0,0,0,.388-2.3V36.412A6.919,6.919,0,0,0,59.8,29.9V25.3a6.9,6.9,0,0,0-6.9-6.9H36.8ZM82.124,49.924a2.282,2.282,0,0,0,0-3.249l-9.2-9.2a2.282,2.282,0,0,0-3.249,0l-9.2,9.2a2.3,2.3,0,0,0,3.249,3.249L69,44.649V62.1a2.3,2.3,0,1,0,4.6,0V44.649l5.276,5.276a2.282,2.282,0,0,0,3.249,0ZM0,25.3A2.3,2.3,0,0,1,2.3,23H52.9a2.307,2.307,0,0,1,2.3,2.3v4.6a2.307,2.307,0,0,1-2.3,2.3H2.3A2.3,2.3,0,0,1,0,29.9ZM50.6,69A4.6,4.6,0,0,1,46,73.6H9.2A4.6,4.6,0,0,1,4.6,69V36.8h46ZM20.7,46a2.3,2.3,0,1,0,0,4.6H34.5a2.3,2.3,0,0,0,0-4.6Z" fill="#fff"/>
</svg>
