<svg xmlns="http://www.w3.org/2000/svg" width="35.992" height="47.999" viewBox="0 0 35.992 47.999">
  <g id="Group_168284" data-name="Group 168284" transform="translate(8278 17988)">
    <g id="ic-file" transform="translate(-8278 -17988)">
      <path id="file-regular" d="M34.671,9.086,26.807,1.222A4.5,4.5,0,0,0,23.629-.1H4.5A4.514,4.514,0,0,0,0,4.408V43.4a4.5,4.5,0,0,0,4.5,4.5H31.493a4.5,4.5,0,0,0,4.5-4.5V12.272a4.521,4.521,0,0,0-1.322-3.187Zm-3.543,2.821H23.995V4.774ZM4.5,43.4V4.408h15v9.748a2.244,2.244,0,0,0,2.25,2.25h9.748V43.4Z" transform="translate(0 0.1)" fill="#707070"/>
    </g>
    <g id="ic-user" transform="translate(-8270 -17970)">
      <path id="user-solid" d="M9.5,10.428a5.324,5.324,0,0,0,5.428-5.214A5.324,5.324,0,0,0,9.5,0,5.324,5.324,0,0,0,4.071,5.214,5.324,5.324,0,0,0,9.5,10.428Zm3.8,1.3h-.708a7.658,7.658,0,0,1-6.183,0H5.7A5.592,5.592,0,0,0,0,17.207V18.9a2,2,0,0,0,2.036,1.955H16.964A2,2,0,0,0,19,18.9V17.207A5.592,5.592,0,0,0,13.3,11.732Z" fill="#707070"/>
    </g>
  </g>
</svg>
