<svg xmlns="http://www.w3.org/2000/svg" width="92" height="73.6" viewBox="0 0 92 73.6">
  <path id="truck-solid_1_" data-name="truck-solid (1)" d="M89.7,50.6H87.4V35.061a6.9,6.9,0,0,0-2.027-4.873L71.012,15.827A6.9,6.9,0,0,0,66.139,13.8H59.8V6.9A6.9,6.9,0,0,0,52.9,0H6.9A6.9,6.9,0,0,0,0,6.9v46a6.9,6.9,0,0,0,6.9,6.9H9.2a13.8,13.8,0,0,0,27.6,0H55.2a13.8,13.8,0,0,0,27.6,0h6.9A2.307,2.307,0,0,0,92,57.5V52.9A2.307,2.307,0,0,0,89.7,50.6ZM23,66.7a6.9,6.9,0,1,1,6.9-6.9A6.9,6.9,0,0,1,23,66.7Zm46,0a6.9,6.9,0,1,1,6.9-6.9A6.9,6.9,0,0,1,69,66.7ZM80.5,36.8H59.8V20.7h6.339L80.5,35.061Z" fill="#fff"/>
</svg>
