<svg xmlns="http://www.w3.org/2000/svg" width="35.992" height="47.999" viewBox="0 0 35.992 47.999">
  <g id="Group_165340" data-name="Group 165340" transform="translate(15440.004 23335)">
    <g id="ic-car" transform="translate(-15433.004 -23314)">
      <path id="car-solid" d="M21.487,68.958H18.915L18.2,67.117A4.791,4.791,0,0,0,13.732,64H8.275a4.793,4.793,0,0,0-4.468,3.117l-.715,1.842H.52a.528.528,0,0,0-.5.66l.258,1.062a.518.518,0,0,0,.5.4H1.64a2.849,2.849,0,0,0-.949,2.125v2.125a2.859,2.859,0,0,0,.688,1.856v2.394A1.4,1.4,0,0,0,2.753,81H4.128A1.4,1.4,0,0,0,5.5,79.583V78.167h11v1.417A1.4,1.4,0,0,0,17.878,81h1.375a1.4,1.4,0,0,0,1.375-1.417V77.19a2.857,2.857,0,0,0,.687-1.856V73.208a2.851,2.851,0,0,0-.948-2.125h.862a.518.518,0,0,0,.5-.4l.258-1.062A.528.528,0,0,0,21.487,68.958ZM6.36,68.169a2.064,2.064,0,0,1,1.915-1.336h5.457a2.064,2.064,0,0,1,1.915,1.336l.856,2.206H5.5ZM4.128,75.324a1.413,1.413,0,0,1,0-2.824,2.686,2.686,0,0,1,2.063,2.118C6.191,75.466,4.953,75.324,4.128,75.324Zm13.75,0c-.825,0-2.063.141-2.063-.706A2.686,2.686,0,0,1,17.878,72.5a1.413,1.413,0,0,1,0,2.824Z" transform="translate(-0.004 -64)" fill="#707070"/>
    </g>
    <g id="ic-file" transform="translate(-15440.004 -23335)">
      <path id="file-regular" d="M34.671,9.086,26.807,1.222A4.5,4.5,0,0,0,23.629-.1H4.5A4.514,4.514,0,0,0,0,4.408V43.4a4.5,4.5,0,0,0,4.5,4.5H31.493a4.5,4.5,0,0,0,4.5-4.5V12.272a4.521,4.521,0,0,0-1.322-3.187Zm-3.543,2.821H23.995V4.774ZM4.5,43.4V4.408h15v9.748a2.244,2.244,0,0,0,2.25,2.25h9.748V43.4Z" transform="translate(0 0.1)" fill="#707070"/>
    </g>
  </g>
</svg>
