<svg id="ic-camera" xmlns="http://www.w3.org/2000/svg" width="29.989" height="26.044" viewBox="0 0 29.989 26.044">
  <path id="camera-solid_1_" data-name="camera-solid (1)" d="M29.989,38.511V55.253a2.8,2.8,0,0,1-2.811,2.79H2.811A2.8,2.8,0,0,1,0,55.253V38.511a2.8,2.8,0,0,1,2.811-2.79H7.966l.72-1.913A2.807,2.807,0,0,1,11.316,32h7.351a2.807,2.807,0,0,1,2.63,1.808l.726,1.913h5.154A2.8,2.8,0,0,1,29.989,38.511Zm-7.966,8.371a7.029,7.029,0,1,0-7.029,6.976A7.008,7.008,0,0,0,22.023,46.882Zm-1.874,0a5.154,5.154,0,1,1-5.154-5.116A5.143,5.143,0,0,1,20.149,46.882Z" transform="translate(0 -32)" fill="#e1e1e1"/>
</svg>
