<svg id="ic-fingerprint" xmlns="http://www.w3.org/2000/svg" width="131.429" height="131.428" viewBox="0 0 131.429 131.428">
  <path id="fingerprint-solid" d="M65.753,63.137A6.161,6.161,0,0,0,59.592,69.3a187.7,187.7,0,0,1-7.111,54.3c-.7,2.5.552,7.827,5.935,7.827a6.163,6.163,0,0,0,5.927-4.5A198.672,198.672,0,0,0,71.911,69.3a6.157,6.157,0,0,0-6.158-6.161Zm-.221-20.98c-15.725-.018-26.7,12.083-26.481,25.949A168.413,168.413,0,0,1,35.619,104.7a6.16,6.16,0,0,0,12.065,2.5,180.721,180.721,0,0,0,3.689-39.28c-.105-6.661,5.113-13.474,13.977-13.435,8.037.121,14.67,6.5,14.791,14.239a206.369,206.369,0,0,1-2.724,36.849,6.159,6.159,0,0,0,5.072,7.08c5.126.855,6.882-3.876,7.08-5.075a218.958,218.958,0,0,0,2.893-39.046C92.237,54.2,80.156,42.373,65.532,42.157ZM37.118,37.08a6.167,6.167,0,0,0-8.666.893A44.521,44.521,0,0,0,18.5,66.723a149.074,149.074,0,0,1-2.339,28.763,6.165,6.165,0,0,0,4.97,7.159c5.162.9,6.949-3.8,7.159-4.97a161.455,161.455,0,0,0,2.531-31.145,31.724,31.724,0,0,1,7.188-20.785A6.164,6.164,0,0,0,37.118,37.08Zm28.1-16a45.885,45.885,0,0,0-11.752,1.276,6.162,6.162,0,1,0,2.839,11.993,36.843,36.843,0,0,1,8.728-.947c19.363.29,35.355,15.787,35.65,34.546a226.168,226.168,0,0,1-1.432,29.168,6.161,6.161,0,0,0,12.242,1.4,238.493,238.493,0,0,0,1.512-30.765c-.4-25.349-21.837-46.29-47.787-46.675Zm64.706,31.176a6.16,6.16,0,1,0-12.032,2.654c1.209,5.5,1.26,9.6,1.206,15.813a6.159,6.159,0,0,0,6.109,6.212h.051a6.16,6.16,0,0,0,6.161-6.109c.046-5.694.1-11.323-1.5-18.569Zm-10.3-23.288A68.284,68.284,0,0,0,64.9.005,64.3,64.3,0,0,0,18.094,18.723,61.22,61.22,0,0,0,.043,63.314L.012,68.826a6.157,6.157,0,0,0,5.976,6.338c.059.005.123.005.185.005a6.163,6.163,0,0,0,6.153-5.981l.041-6.068A48.971,48.971,0,0,1,26.814,27.438,52.022,52.022,0,0,1,64.723,12.329a55.925,55.925,0,0,1,44.825,23.716,6.157,6.157,0,1,0,10.078-7.077Z" transform="translate(-0.009 0)" fill="#707070"/>
</svg>
