<svg xmlns="http://www.w3.org/2000/svg" width="16" height="14.225" viewBox="0 0 16 14.225">
  <path id="broom-solid" d="M15.74,1.444A.89.89,0,0,0,14.481.185L9.148,5.519l-.964-.964A.629.629,0,0,0,7.111,5v.808L10.12,8.816h.808a.629.629,0,0,0,.444-1.072l-.964-.964,5.334-5.334Zm-6.264,8.3L6.184,6.452A4.059,4.059,0,0,0,2.967,7.627l-.222.222a3.3,3.3,0,0,0-.967,2.333.254.254,0,0,0,.367.228L3.564,9.7a.134.134,0,0,1,.15.219L.2,13.078a.622.622,0,0,0-.2.458.614.614,0,0,0,.614.614H5.428A4.061,4.061,0,0,0,9.475,9.744Z" transform="translate(0 0.075)" fill="#fff"/>
</svg>
