<svg id="ic-download-file" xmlns="http://www.w3.org/2000/svg" width="9.059" height="8" viewBox="0 0 9.059 8">
  <path id="Path_4778" data-name="Path 4778" d="M8.264,7.284a.283.283,0,0,1-.2-.088L6.078,5.121a.283.283,0,0,1,.2-.479H7.321V2.472A.472.472,0,0,1,7.792,2h.944a.472.472,0,0,1,.472.472v2.17h1.038a.283.283,0,0,1,.2.479L8.469,7.2A.283.283,0,0,1,8.264,7.284Z" transform="translate(-3.735 -2)" fill="#146f62"/>
  <path id="Path_4779" data-name="Path 4779" d="M8.4,19.51H.661A.661.661,0,0,1,0,18.849v-.189A.661.661,0,0,1,.661,18H8.4a.661.661,0,0,1,.661.661v.189A.661.661,0,0,1,8.4,19.51Z" transform="translate(0 -11.961)" fill="#146f62"/>
</svg>
