<svg id="ic-face" xmlns="http://www.w3.org/2000/svg" width="24" height="24" viewBox="0 0 24 24">
  <path id="Path_4886" data-name="Path 4886" d="M1.945-511.924a2.843,2.843,0,0,0-1.879,1.7l-.137.331-.014,2.911L-.1-504.068l.109.161a.788.788,0,0,0,1.287.033c.1-.133.1-.18.123-2.863l.024-2.731.133-.27a1.214,1.214,0,0,1,.648-.625c.208-.095.3-.1,2.944-.123,2.683-.024,2.731-.024,2.863-.123A.783.783,0,0,0,8-511.891L7.842-512l-2.821,0A22.227,22.227,0,0,0,1.945-511.924Z" transform="translate(0.1 512.005)"/>
  <path id="Path_4887" data-name="Path 4887" d="M333.945-511.991a.788.788,0,0,0-.033,1.287c.133.1.18.1,2.863.123,2.646.024,2.736.028,2.944.123a1.215,1.215,0,0,1,.648.625l.133.27.024,2.731c.024,2.684.024,2.731.123,2.863A.783.783,0,0,0,341.93-504l.109-.156v-2.8c0-3.109,0-3.076-.317-3.682a2.735,2.735,0,0,0-1.458-1.3l-.331-.137-2.911-.014-2.915-.014Z" transform="translate(-318.039 512.1)"/>
  <path id="Path_4888" data-name="Path 4888" d="M106.54-383.935a.983.983,0,0,0-.421.53,10.188,10.188,0,0,0-.014,1.065c.014.833.024.918.114,1.041a.772.772,0,0,0,.677.346.664.664,0,0,0,.653-.364c.1-.17.109-.222.109-1.141,0-1.084-.038-1.231-.345-1.425A1.106,1.106,0,0,0,106.54-383.935Z" transform="translate(-101.126 389.977)"/>
  <path id="Path_4889" data-name="Path 4889" d="M184.47-383.96c-.341.218-.317.033-.345,3.19-.024,2.816-.024,2.84-.128,3.034a1.432,1.432,0,0,1-.6.6c-.17.09-.3.109-1.008.128-.9.033-.956.052-1.188.388a.54.54,0,0,0-.095.435.659.659,0,0,0,.416.634c.189.1.275.109.9.109a3.386,3.386,0,0,0,1.737-.331,2.577,2.577,0,0,0,1.2-1.2c.331-.672.336-.724.322-3.843-.014-2.717-.014-2.764-.114-2.9a1.394,1.394,0,0,0-.256-.241A.89.89,0,0,0,184.47-383.96Z" transform="translate(-172.628 390.031)"/>
  <path id="Path_4890" data-name="Path 4890" d="M352.341-383.905c-.317.194-.341.284-.341,1.42,0,.932.009,1.032.095,1.174a.717.717,0,0,0,.663.341.717.717,0,0,0,.663-.341c.085-.142.095-.241.095-1.174s-.009-1.032-.095-1.174a.717.717,0,0,0-.663-.341A.765.765,0,0,0,352.341-383.905Z" transform="translate(-335.51 389.995)"/>
  <path id="Path_4891" data-name="Path 4891" d="M.639-178.464a.783.783,0,0,0-.459.4c-.033.09-.047.965-.038,3.01l.014,2.887.137.331a2.735,2.735,0,0,0,1.3,1.458c.606.322.573.317,3.682.317h2.8l.156-.109a.783.783,0,0,0,.033-1.283c-.133-.1-.18-.1-2.863-.123L2.665-171.6l-.27-.133a1.214,1.214,0,0,1-.625-.648c-.095-.208-.1-.3-.123-2.944-.024-2.683-.024-2.731-.123-2.863A.793.793,0,0,0,.639-178.464Z" transform="translate(-0.128 194.059)"/>
  <path id="Path_4892" data-name="Path 4892" d="M341.03-178.467a.758.758,0,0,0-.426.336,25.875,25.875,0,0,0-.08,2.816c-.024,2.636-.028,2.726-.123,2.934a1.215,1.215,0,0,1-.625.648l-.27.133-2.731.024c-2.683.024-2.731.024-2.863.123a.783.783,0,0,0,.033,1.283l.156.109h2.8c3.114,0,3.072,0,3.692-.322a2.865,2.865,0,0,0,1.126-1.126c.327-.62.322-.577.322-3.692V-178l-.109-.156A.777.777,0,0,0,341.03-178.467Z" transform="translate(-318.039 194.061)"/>
  <path id="Path_4893" data-name="Path 4893" d="M154.426-165.9a.838.838,0,0,0-.426.677,2.017,2.017,0,0,0,.506.975,5.044,5.044,0,0,0,2.83,1.732,4.834,4.834,0,0,0,1.018.076,3.53,3.53,0,0,0,1.16-.128,5.816,5.816,0,0,0,1.656-.757,4.569,4.569,0,0,0,1.453-1.723.8.8,0,0,0-.2-.691.711.711,0,0,0-.686-.241c-.251.038-.435.18-.658.521a3.939,3.939,0,0,1-1.183,1.074,3.077,3.077,0,0,1-1.538.393,2.759,2.759,0,0,1-1.444-.331,3.331,3.331,0,0,1-1.51-1.377.97.97,0,0,0-.62-.3A1.009,1.009,0,0,0,154.426-165.9Z" transform="translate(-146.818 182.193)"/>
</svg>
