<svg id="ic-fingerprint" xmlns="http://www.w3.org/2000/svg" width="18.648" height="24" viewBox="0 0 18.648 24">
  <g id="Group_162456" data-name="Group 162456">
    <path id="Path_4640" data-name="Path 4640" d="M354.146,294.605a.352.352,0,0,0-.352.352v.136a6.99,6.99,0,0,1-2.087,5.227.352.352,0,1,0,.485.511,7.677,7.677,0,0,0,2.306-5.738v-.136A.352.352,0,0,0,354.146,294.605Z" transform="translate(-337.799 -280.802)"/>
    <path id="Path_4641" data-name="Path 4641" d="M353.053,83.6a.352.352,0,1,0-.489.506,6.64,6.64,0,0,1,2.049,4.812v3.2a.352.352,0,1,0,.7,0v-3.2A7.339,7.339,0,0,0,353.053,83.6Z" transform="translate(-338.617 -79.594)"/>
    <path id="Path_4642" data-name="Path 4642" d="M164.087,43.416a6.583,6.583,0,0,1,3.746-1.194h.04a6.655,6.655,0,0,1,3.391.923.352.352,0,1,0,.359-.606,7.36,7.36,0,0,0-3.75-1.022h-.043a7.285,7.285,0,0,0-4.146,1.321.352.352,0,0,0,.4.577Z" transform="translate(-158.549 -39.569)"/>
    <path id="Path_4643" data-name="Path 4643" d="M100.334,106.534a6.632,6.632,0,0,1-1.029-3.553V97.7a6.753,6.753,0,0,1,1.684-4.461.352.352,0,0,0-.529-.463A7.454,7.454,0,0,0,98.6,97.7v5.28a7.333,7.333,0,0,0,1.138,3.928c.066.1.135.208.206.308a.352.352,0,0,0,.576-.4C100.456,106.722,100.394,106.628,100.334,106.534Z" transform="translate(-96.652 -88.308)"/>
    <path id="Path_4644" data-name="Path 4644" d="M153.772,168.315a1.114,1.114,0,0,1-.617-1V162a1.142,1.142,0,0,1,1.095-1.155,1.116,1.116,0,0,1,1.137,1.116v4.333a.352.352,0,0,0,.7,0s0-4.325,0-4.333a1.821,1.821,0,0,0-1.855-1.82A1.849,1.849,0,0,0,152.452,162v5.319a1.814,1.814,0,0,0,1,1.626,2.432,2.432,0,1,1-2.166,4.354,6.711,6.711,0,0,1-1.442-.974.352.352,0,1,0-.467.527,7.414,7.414,0,0,0,1.593,1.077,3.136,3.136,0,1,0,2.8-5.612Z" transform="translate(-144.944 -152.653)"/>
    <path id="Path_4645" data-name="Path 4645" d="M136.7,262.348a.352.352,0,0,0-.352.352v2.029a5.594,5.594,0,0,0,3.111,5.026.352.352,0,1,0,.315-.63,4.893,4.893,0,0,1-2.722-4.4V262.7A.352.352,0,0,0,136.7,262.348Z" transform="translate(-132.631 -250.057)"/>
    <path id="Path_4646" data-name="Path 4646" d="M299.091,144.473a.352.352,0,0,0-.017.5,2.873,2.873,0,0,1,.775,1.967v5.472a.352.352,0,1,0,.7,0v-5.472a3.574,3.574,0,0,0-.965-2.448A.352.352,0,0,0,299.091,144.473Z" transform="translate(-287.642 -137.615)"/>
    <path id="Path_4647" data-name="Path 4647" d="M183.945,123.236a.352.352,0,0,0,.212-.671,3.594,3.594,0,0,0-4.677,3.464v5.319a.352.352,0,0,0,.7,0v-5.319a2.89,2.89,0,0,1,3.761-2.793Z" transform="translate(-173.745 -116.665)"/>
    <path id="Path_4648" data-name="Path 4648" d="M189.859,341.853a.352.352,0,0,0-.115.484,3.6,3.6,0,0,0,1.446,1.323.352.352,0,1,0,.317-.628,2.9,2.9,0,0,1-1.163-1.064A.352.352,0,0,0,189.859,341.853Z" transform="translate(-183.477 -325.781)"/>
    <path id="Path_4649" data-name="Path 4649" d="M255.743,301.577a.352.352,0,1,0-.342.615,4.227,4.227,0,0,1,2,4.906,4.159,4.159,0,0,1-.584,1.2.352.352,0,0,0,.576.4,4.858,4.858,0,0,0,.682-1.406,4.931,4.931,0,0,0-2.328-5.723Z" transform="translate(-245.934 -287.41)"/>
    <path id="Path_4650" data-name="Path 4650" d="M146.489,93.378a6.86,6.86,0,0,0,1.065-3.652V84.877A5.7,5.7,0,0,0,145.9,80.9a5.561,5.561,0,0,0-3.949-1.635h-.033a5.657,5.657,0,0,0-5.571,5.684v1.616a.351.351,0,1,0,.7,0V84.945a4.953,4.953,0,0,1,4.874-4.98h.028a4.914,4.914,0,0,1,4.9,4.912v4.848A6.155,6.155,0,0,1,145.894,93a.352.352,0,1,0,.594.375Z" transform="translate(-132.625 -75.553)"/>
    <path id="Path_4651" data-name="Path 4651" d="M248.5,208.772v1.76a.352.352,0,1,0,.7,0v-1.76a.352.352,0,1,0-.7,0Z" transform="translate(-239.528 -198.652)"/>
    <path id="Path_4652" data-name="Path 4652" d="M66.408,0a9.335,9.335,0,0,0-9.324,9.324v5.352a9.324,9.324,0,1,0,18.648,0V9.324A9.335,9.335,0,0,0,66.408,0Zm8.621,14.676a8.621,8.621,0,0,1-17.242,0V9.324a8.621,8.621,0,0,1,17.242,0Z" transform="translate(-57.084 0)"/>
  </g>
</svg>
