<svg xmlns="http://www.w3.org/2000/svg" width="125.517" height="40.141" viewBox="0 0 125.517 40.141">
  <g id="ientry-corporate-large" transform="translate(-675.853 -702.65)">
    <g id="Group_167912" data-name="Group 167912" transform="translate(682.741 712.696)">
      <path id="Path_4927" data-name="Path 4927" d="M705.655,766.348V766.1l3.437-1.558,3.08,1.5,0-.444-3.075-1.5-3.445,1.561v-.867l3.437-1.561,3.08,1.5,0-.444-3.075-1.5-3.445,1.563v-.75l3.437-1.561,3.08,1.491,0-.434-3.075-1.5-3.445,1.563v-.88l3.437-1.558,3.08,1.5,0-.441-3.075-1.5-3.445,1.563v-1.091l3.437-1.558,3.08,1.471,0-.416-3.075-1.5-3.445,1.561V759.29l3.437-1.561,3.08,1.463,0-.406-3.075-1.5-3.445,1.563v-.821l3.437-1.558,3.08,1.407,0-.352-3.075-1.5-3.6,1.63h-.6v8.688H702.69v.975h16.283v-.975Z" transform="translate(-702.69 -752.375)" fill="#fff"/>
      <path id="Path_4928" data-name="Path 4928" d="M727.044,745.17l1.848-.567v1.2l4.548,2.177v.411l-2.559-1.178v.444l2.559,1.178v.5l-2.559-.916v.431l2.559.916v.744l-2.559-.631v.416l2.559.631v.78l-2.559-.416v.413l2.559.416v.708l-2.559-.213v.4l2.559.213V754l-2.559-.177v.4l2.559.177v.642h-2.559v.4h2.559v.662h.59V744.436h-.59v.1l-4.292-2.749-2.107.647h-.331v2.731h.331Zm2.272-2.79,4.127,2.644v.536l-4.127-2.482Zm0,1.165,4.127,2.482v.567l-4.127-2.382Zm0,1.129,4.127,2.382v.477l-4.127-1.974Zm-2.236-1.833,1.812-.554v.762l-1.812.554Zm0,1.178,1.812-.554v.724l-1.812.554Z" transform="translate(-720.545 -741.79)" fill="#fff"/>
    </g>
    <g id="Group_167913" data-name="Group 167913" transform="translate(759.982 711.808)">
      <path id="Path_4929" data-name="Path 4929" d="M1009.524,738.33v5.095h4.617v2.456h-4.617v9.566c0,2.2.624,3.444,2.42,3.444a7.149,7.149,0,0,0,1.869-.221l.146,2.42a7.9,7.9,0,0,1-2.859.439,4.476,4.476,0,0,1-3.483-1.355c-.916-.952-1.247-2.528-1.247-4.617v-9.677h-2.749v-2.456h2.749v-4.253Z" transform="translate(-1003.62 -738.33)" fill="#fff"/>
    </g>
    <g id="Group_167914" data-name="Group 167914" transform="translate(714.787 709.904)">
      <path id="Path_4930" data-name="Path 4930" d="M831.536,732.925a2,2,0,0,1-4,0,1.963,1.963,0,0,1,2.015-2.015A1.913,1.913,0,0,1,831.536,732.925Zm-3.593,22.726V737.91h3.226v17.741Z" transform="translate(-827.54 -730.91)" fill="#fff"/>
      <path id="Path_4931" data-name="Path 4931" d="M875.745,744.164h-9.6v8.906h10.7v2.677H862.95V731.04h13.342v2.677H866.138v7.808h9.6v2.639Z" transform="translate(-853.862 -731.007)" fill="#fff"/>
    </g>
    <g id="Group_167915" data-name="Group 167915" transform="translate(741.655 716.497)">
      <path id="Path_4932" data-name="Path 4932" d="M932.366,761.808c0-1.833-.036-3.337-.146-4.8h2.859l.182,2.931h.074A6.524,6.524,0,0,1,941.2,756.6c2.456,0,6.268,1.466,6.268,7.551v10.593h-3.226V764.518c0-2.859-1.063-5.241-4.1-5.241a4.585,4.585,0,0,0-4.325,3.3,4.645,4.645,0,0,0-.221,1.5v10.667h-3.226Z" transform="translate(-932.22 -756.6)" fill="#fff"/>
    </g>
    <g id="Group_167916" data-name="Group 167916" transform="translate(773.986 716.5)">
      <path id="Path_4933" data-name="Path 4933" d="M1058.326,762.547c0-2.089-.036-3.886-.146-5.534H1061l.11,3.483h.146a5.324,5.324,0,0,1,4.913-3.886,3.437,3.437,0,0,1,.916.11v3.042a4.784,4.784,0,0,0-1.1-.11c-2.271,0-3.886,1.722-4.325,4.143a8.943,8.943,0,0,0-.146,1.5v9.458h-3.188v-12.21Z" transform="translate(-1058.18 -756.61)" fill="#fff"/>
    </g>
    <g id="Group_167917" data-name="Group 167917" transform="translate(784.694 716.903)">
      <path id="Path_4934" data-name="Path 4934" d="M1103.414,758.18l3.886,10.482c.4,1.173.842,2.567,1.137,3.629h.074c.331-1.063.7-2.42,1.137-3.7l3.519-10.41h3.409l-4.838,12.646c-2.31,6.086-3.886,9.2-6.086,11.106a8.728,8.728,0,0,1-3.958,2.089l-.806-2.713a8.565,8.565,0,0,0,2.823-1.576,9.775,9.775,0,0,0,2.713-3.593,2.323,2.323,0,0,0,.257-.77,2.811,2.811,0,0,0-.221-.842L1099.9,758.18h3.514Z" transform="translate(-1099.9 -758.18)" fill="#fff"/>
    </g>
    <g id="Group_167918" data-name="Group 167918" transform="translate(675.853 702.65)">
      <path id="Path_4935" data-name="Path 4935" d="M675.855,720.07v-6.827s-.105-.6,1.271-1.33l13.583-9.263v7.156Z" transform="translate(-675.853 -702.65)" fill="#fff"/>
      <path id="Path_4936" data-name="Path 4936" d="M750.434,720.07v-6.827s.105-.6-1.271-1.33L735.58,702.65v7.156Z" transform="translate(-720.25 -702.65)" fill="#fff"/>
      <path id="Path_4937" data-name="Path 4937" d="M675.86,804.218l6.127-2.9,7.918,5.408a1.673,1.673,0,0,1,.806,1.345v6.4Z" transform="translate(-675.858 -775.994)" fill="#fff"/>
      <path id="Path_4938" data-name="Path 4938" d="M750.441,804.218l-6.127-2.9-7.919,5.408a1.673,1.673,0,0,0-.806,1.345v6.4Z" transform="translate(-720.257 -775.994)" fill="#fff"/>
      <path id="Path_4939" data-name="Path 4939" d="M675.86,761.285a2.241,2.241,0,0,1,.957-1.668l4.692-3.293s.434-.121.434.3V767.53l-6.081,2.972v-9.217Z" transform="translate(-675.858 -742.535)" fill="#fff"/>
      <path id="Path_4940" data-name="Path 4940" d="M775.833,761.285a2.241,2.241,0,0,0-.957-1.668l-4.692-3.293s-.434-.121-.434.3V767.53l6.08,2.972v-9.217Z" transform="translate(-745.649 -742.535)" fill="#fff"/>
    </g>
    <g id="Group_167919" data-name="Group 167919" transform="translate(715.084 738.363)">
      <path id="Path_4941" data-name="Path 4941" d="M831.916,844.652l.567.144a1.889,1.889,0,0,1-.642,1.063,1.773,1.773,0,0,1-1.132.367,2.028,2.028,0,0,1-1.124-.282,1.767,1.767,0,0,1-.66-.816,2.9,2.9,0,0,1-.226-1.147,2.525,2.525,0,0,1,.254-1.165,1.75,1.75,0,0,1,.726-.755,2.122,2.122,0,0,1,1.037-.259,1.754,1.754,0,0,1,1.081.326,1.7,1.7,0,0,1,.611.919l-.557.131a1.337,1.337,0,0,0-.431-.68,1.158,1.158,0,0,0-.711-.213,1.388,1.388,0,0,0-.824.236,1.248,1.248,0,0,0-.465.634,2.553,2.553,0,0,0-.133.821,2.615,2.615,0,0,0,.159.952,1.179,1.179,0,0,0,.5.608,1.39,1.39,0,0,0,.726.2,1.223,1.223,0,0,0,.806-.275A1.4,1.4,0,0,0,831.916,844.652Z" transform="translate(-828.7 -841.798)" fill="#fff"/>
      <path id="Path_4942" data-name="Path 4942" d="M845.48,844.062a2.322,2.322,0,0,1,.572-1.668,1.949,1.949,0,0,1,1.476-.6,2.056,2.056,0,0,1,1.068.282,1.836,1.836,0,0,1,.727.791,2.746,2.746,0,0,1-.013,2.313,1.788,1.788,0,0,1-.744.778,2.115,2.115,0,0,1-1.039.265,2.026,2.026,0,0,1-1.081-.293,1.88,1.88,0,0,1-.721-.8A2.438,2.438,0,0,1,845.48,844.062Zm.585.008a1.717,1.717,0,0,0,.416,1.219,1.451,1.451,0,0,0,2.094-.005,1.82,1.82,0,0,0,.413-1.276,2.179,2.179,0,0,0-.177-.911,1.353,1.353,0,0,0-.516-.6,1.389,1.389,0,0,0-.762-.216,1.453,1.453,0,0,0-1.034.413A1.836,1.836,0,0,0,846.065,844.069Z" transform="translate(-841.173 -841.79)" fill="#fff"/>
      <path id="Path_4943" data-name="Path 4943" d="M864.3,846.359V842.08h1.9a2.523,2.523,0,0,1,.87.115.94.94,0,0,1,.475.408,1.224,1.224,0,0,1,.177.644,1.072,1.072,0,0,1-.3.767,1.5,1.5,0,0,1-.911.4,1.482,1.482,0,0,1,.341.213,2.986,2.986,0,0,1,.47.57l.744,1.165h-.711l-.567-.891c-.164-.257-.3-.454-.408-.59a1.281,1.281,0,0,0-.287-.285.848.848,0,0,0-.259-.113,1.771,1.771,0,0,0-.316-.021h-.657v1.9H864.3Zm.565-2.39h1.217a1.8,1.8,0,0,0,.606-.08.651.651,0,0,0,.334-.257.686.686,0,0,0,.113-.382.635.635,0,0,0-.221-.5,1.042,1.042,0,0,0-.7-.195h-1.353v1.412Z" transform="translate(-855.163 -842.006)" fill="#fff"/>
      <path id="Path_4944" data-name="Path 4944" d="M881.08,846.359V842.08h1.614a3.807,3.807,0,0,1,.652.041,1.324,1.324,0,0,1,.529.2,1.059,1.059,0,0,1,.344.413,1.3,1.3,0,0,1,.131.583,1.316,1.316,0,0,1-.346.924,1.666,1.666,0,0,1-1.255.377h-1.1v1.74Zm.564-2.243h1.106a1.179,1.179,0,0,0,.78-.205.728.728,0,0,0,.231-.575.777.777,0,0,0-.136-.459.631.631,0,0,0-.357-.252,2.4,2.4,0,0,0-.529-.038h-1.093v1.53Z" transform="translate(-867.636 -842.006)" fill="#fff"/>
      <path id="Path_4945" data-name="Path 4945" d="M895.94,844.062a2.322,2.322,0,0,1,.572-1.668,1.95,1.95,0,0,1,1.476-.6,2.056,2.056,0,0,1,1.068.282,1.835,1.835,0,0,1,.726.791,2.745,2.745,0,0,1-.013,2.313,1.789,1.789,0,0,1-.744.778,2.116,2.116,0,0,1-1.04.265,2.025,2.025,0,0,1-1.081-.293,1.881,1.881,0,0,1-.721-.8A2.4,2.4,0,0,1,895.94,844.062Zm.583.008a1.717,1.717,0,0,0,.416,1.219,1.451,1.451,0,0,0,2.095-.005,1.82,1.82,0,0,0,.413-1.276,2.179,2.179,0,0,0-.177-.911,1.352,1.352,0,0,0-.516-.6,1.389,1.389,0,0,0-.762-.216,1.452,1.452,0,0,0-1.034.413A1.837,1.837,0,0,0,896.523,844.069Z" transform="translate(-878.682 -841.79)" fill="#fff"/>
      <path id="Path_4946" data-name="Path 4946" d="M914.75,846.359V842.08h1.9a2.525,2.525,0,0,1,.87.115.94.94,0,0,1,.475.408,1.224,1.224,0,0,1,.177.644,1.072,1.072,0,0,1-.3.767,1.5,1.5,0,0,1-.911.4,1.483,1.483,0,0,1,.341.213,3,3,0,0,1,.47.57l.744,1.165h-.711l-.567-.891c-.164-.257-.3-.454-.408-.59a1.281,1.281,0,0,0-.287-.285.847.847,0,0,0-.259-.113,1.769,1.769,0,0,0-.316-.021h-.657v1.9h-.562Zm.567-2.39h1.217a1.8,1.8,0,0,0,.606-.08.652.652,0,0,0,.334-.257.687.687,0,0,0,.113-.382.634.634,0,0,0-.221-.5,1.042,1.042,0,0,0-.7-.195h-1.353Z" transform="translate(-892.663 -842.006)" fill="#fff"/>
      <path id="Path_4947" data-name="Path 4947" d="M931.269,846.359v-3.773H929.86v-.506h3.391v.506h-1.414v3.773Z" transform="translate(-903.895 -842.006)" fill="#fff"/>
      <path id="Path_4948" data-name="Path 4948" d="M945.38,846.359V842.08h3.093v.506h-2.526v1.309h2.367v.5h-2.367v1.455h2.626v.506Z" transform="translate(-915.432 -842.006)" fill="#fff"/>
      <path id="Path_4949" data-name="Path 4949" d="M966.58,844.77l.534-.046a1.179,1.179,0,0,0,.177.526.972.972,0,0,0,.431.334,1.63,1.63,0,0,0,.657.126,1.582,1.582,0,0,0,.572-.1.8.8,0,0,0,.37-.264.6.6,0,0,0,.121-.367.561.561,0,0,0-.116-.352.845.845,0,0,0-.385-.252,7.468,7.468,0,0,0-.762-.208,3.907,3.907,0,0,1-.826-.267,1.152,1.152,0,0,1-.457-.4.979.979,0,0,1-.149-.534,1.084,1.084,0,0,1,.185-.606,1.142,1.142,0,0,1,.536-.429,2.038,2.038,0,0,1,.785-.146,2.139,2.139,0,0,1,.839.154,1.214,1.214,0,0,1,.56.452,1.3,1.3,0,0,1,.211.675l-.542.041a.881.881,0,0,0-.3-.614,1.144,1.144,0,0,0-.744-.208,1.2,1.2,0,0,0-.749.187.567.567,0,0,0-.236.454.491.491,0,0,0,.167.38,2.239,2.239,0,0,0,.855.306,5.925,5.925,0,0,1,.947.272,1.292,1.292,0,0,1,.552.436,1.071,1.071,0,0,1,.177.608,1.163,1.163,0,0,1-.2.644,1.292,1.292,0,0,1-.562.47,1.938,1.938,0,0,1-.824.167,2.455,2.455,0,0,1-.973-.169,1.418,1.418,0,0,1-.86-1.276Z" transform="translate(-931.19 -841.79)" fill="#fff"/>
      <path id="Path_4950" data-name="Path 4950" d="M982.19,844.062a2.322,2.322,0,0,1,.573-1.668,1.949,1.949,0,0,1,1.476-.6,2.063,2.063,0,0,1,1.068.282,1.836,1.836,0,0,1,.726.791,2.747,2.747,0,0,1-.013,2.313,1.8,1.8,0,0,1-.744.778,2.116,2.116,0,0,1-1.04.265,2.025,2.025,0,0,1-1.08-.293,1.881,1.881,0,0,1-.721-.8A2.4,2.4,0,0,1,982.19,844.062Zm.583.008a1.718,1.718,0,0,0,.416,1.219,1.451,1.451,0,0,0,2.094-.005,1.82,1.82,0,0,0,.413-1.276,2.176,2.176,0,0,0-.177-.911,1.353,1.353,0,0,0-.516-.6,1.413,1.413,0,0,0-.762-.216,1.452,1.452,0,0,0-1.034.413A1.836,1.836,0,0,0,982.773,844.069Z" transform="translate(-942.793 -841.79)" fill="#fff"/>
      <path id="Path_4951" data-name="Path 4951" d="M1000.88,846.359V842.08h.567v3.773h2.107v.506Z" transform="translate(-956.686 -842.006)" fill="#fff"/>
      <path id="Path_4952" data-name="Path 4952" d="M1016.748,842.083h.567v2.472a2.928,2.928,0,0,1-.146,1.024,1.233,1.233,0,0,1-.526.616,1.861,1.861,0,0,1-1,.239,2.046,2.046,0,0,1-.983-.208,1.2,1.2,0,0,1-.547-.6,2.876,2.876,0,0,1-.164-1.073V842.08h.567v2.469a2.4,2.4,0,0,0,.1.821.79.79,0,0,0,.357.408,1.241,1.241,0,0,0,.616.144,1.187,1.187,0,0,0,.891-.282,1.634,1.634,0,0,0,.264-1.088Z" transform="translate(-966.402 -842.006)" fill="#fff"/>
      <path id="Path_4953" data-name="Path 4953" d="M1030.889,846.359v-3.773h-1.409v-.506h3.391v.506h-1.414v3.773Z" transform="translate(-977.945 -842.006)" fill="#fff"/>
      <path id="Path_4954" data-name="Path 4954" d="M1045.33,846.359V842.08h.567v4.279Z" transform="translate(-989.727 -842.006)" fill="#fff"/>
      <path id="Path_4955" data-name="Path 4955" d="M1050.75,844.062a2.322,2.322,0,0,1,.573-1.668,1.949,1.949,0,0,1,1.476-.6,2.062,2.062,0,0,1,1.068.282,1.836,1.836,0,0,1,.727.791,2.746,2.746,0,0,1-.013,2.313,1.8,1.8,0,0,1-.745.778,2.115,2.115,0,0,1-1.04.265,2.026,2.026,0,0,1-1.081-.293,1.881,1.881,0,0,1-.721-.8A2.4,2.4,0,0,1,1050.75,844.062Zm.583.008a1.717,1.717,0,0,0,.416,1.219,1.451,1.451,0,0,0,2.095-.005,1.821,1.821,0,0,0,.413-1.276,2.179,2.179,0,0,0-.177-.911,1.352,1.352,0,0,0-.516-.6,1.412,1.412,0,0,0-.762-.216,1.452,1.452,0,0,0-1.034.413A1.847,1.847,0,0,0,1051.333,844.069Z" transform="translate(-993.756 -841.79)" fill="#fff"/>
      <path id="Path_4956" data-name="Path 4956" d="M1069.51,846.359V842.08h.58l2.246,3.357V842.08h.544v4.279h-.58L1070.054,843v3.362Z" transform="translate(-1007.701 -842.006)" fill="#fff"/>
      <path id="Path_4957" data-name="Path 4957" d="M1085.59,844.77l.534-.046a1.185,1.185,0,0,0,.177.526.975.975,0,0,0,.431.334,1.63,1.63,0,0,0,.657.126,1.584,1.584,0,0,0,.572-.1.8.8,0,0,0,.37-.264.6.6,0,0,0,.121-.367.561.561,0,0,0-.116-.352.845.845,0,0,0-.385-.252,7.49,7.49,0,0,0-.762-.208,3.9,3.9,0,0,1-.827-.267,1.151,1.151,0,0,1-.457-.4.979.979,0,0,1-.149-.534,1.086,1.086,0,0,1,.185-.606,1.144,1.144,0,0,1,.537-.429,2.038,2.038,0,0,1,.785-.146,2.138,2.138,0,0,1,.839.154,1.213,1.213,0,0,1,.559.452,1.292,1.292,0,0,1,.211.675l-.542.041a.882.882,0,0,0-.3-.614,1.144,1.144,0,0,0-.744-.208,1.2,1.2,0,0,0-.749.187.567.567,0,0,0-.236.454.49.49,0,0,0,.167.38,2.24,2.24,0,0,0,.855.306,5.915,5.915,0,0,1,.947.272,1.293,1.293,0,0,1,.552.436,1.072,1.072,0,0,1,.177.608,1.163,1.163,0,0,1-.2.644,1.293,1.293,0,0,1-.562.47,1.938,1.938,0,0,1-.824.167,2.455,2.455,0,0,1-.973-.169,1.366,1.366,0,0,1-.616-.508A1.383,1.383,0,0,1,1085.59,844.77Z" transform="translate(-1019.654 -841.79)" fill="#fff"/>
    </g>
  </g>
</svg>
