<svg xmlns="http://www.w3.org/2000/svg" width="30.216" height="38.513" viewBox="0 0 30.216 38.513">
  <g id="test_2" transform="translate(-675.853 -702.65)">
    <g id="Group_167909" data-name="Group 167909" transform="translate(675.853 702.65)">
      <path id="Path_4919" data-name="Path 4919" d="M675.855,720.088v-6.834s-.105-.6,1.272-1.331l13.6-9.273v7.163Z" transform="translate(-675.853 -702.65)" fill="#fff"/>
      <path id="Path_4920" data-name="Path 4920" d="M750.448,720.088v-6.834s.105-.6-1.272-1.331l-13.6-9.273v7.163Z" transform="translate(-720.235 -702.65)" fill="#fff"/>
      <path id="Path_4921" data-name="Path 4921" d="M675.86,804.221l6.133-2.9,7.926,5.413a1.674,1.674,0,0,1,.807,1.346v6.4Z" transform="translate(-675.858 -775.969)" fill="#fff"/>
      <path id="Path_4922" data-name="Path 4922" d="M750.456,804.221l-6.133-2.9-7.926,5.413a1.674,1.674,0,0,0-.807,1.346v6.4Z" transform="translate(-720.242 -775.969)" fill="#fff"/>
      <path id="Path_4923" data-name="Path 4923" d="M675.86,761.29a2.243,2.243,0,0,1,.958-1.67l4.7-3.3s.434-.121.434.3v10.919l-6.087,2.975V761.29Z" transform="translate(-675.858 -742.521)" fill="#fff"/>
      <path id="Path_4924" data-name="Path 4924" d="M775.839,761.29a2.243,2.243,0,0,0-.958-1.67l-4.7-3.3s-.434-.121-.434.3v10.919l6.087,2.975V761.29Z" transform="translate(-745.625 -742.521)" fill="#fff"/>
    </g>
    <g id="Group_167910" data-name="Group 167910" transform="translate(682.748 712.706)">
      <path id="Path_4925" data-name="Path 4925" d="M705.658,766.359v-.249l3.44-1.559,3.083,1.5,0-.444-3.078-1.5-3.448,1.562V764.8l3.44-1.562,3.083,1.5,0-.444-3.078-1.5-3.448,1.565v-.75l3.44-1.562,3.083,1.493,0-.434-3.078-1.5-3.448,1.565v-.881l3.44-1.56,3.083,1.5,0-.442-3.078-1.5-3.448,1.565v-1.092l3.44-1.559,3.083,1.472,0-.416-3.078-1.5-3.448,1.562v-1.03l3.44-1.562,3.083,1.464,0-.406-3.078-1.5-3.448,1.565v-.822l3.44-1.56,3.083,1.408,0-.352-3.078-1.5-3.6,1.632h-.6v8.7H702.69v.976h16.3v-.976Z" transform="translate(-702.69 -752.371)" fill="#fff"/>
      <path id="Path_4926" data-name="Path 4926" d="M727.044,745.174l1.85-.568v1.2l4.553,2.179v.411l-2.562-1.179v.444l2.562,1.179v.5l-2.562-.917v.432l2.562.917v.745l-2.562-.632v.416l2.562.632v.781l-2.562-.416v.414l2.562.416v.709l-2.562-.213v.4l2.562.213v.773l-2.562-.177v.4l2.562.177v.642h-2.562v.4h2.562v.663h.591V744.439h-.591v.1l-4.3-2.752-2.109.647h-.331v2.734h.331Zm2.274-2.793,4.131,2.646v.537l-4.131-2.484Zm0,1.166,4.131,2.484v.568l-4.131-2.384Zm0,1.13,4.131,2.384v.478l-4.131-1.976Zm-2.238-1.834,1.814-.555v.763l-1.814.555Zm0,1.179,1.814-.555v.724l-1.814.555Z" transform="translate(-720.539 -741.79)" fill="#fff"/>
    </g>
  </g>
</svg>
