<svg id="ic-build" xmlns="http://www.w3.org/2000/svg" width="42.461" height="48" viewBox="0 0 42.461 48">
  <path id="building-regular_1_" data-name="building-regular (1)" d="M12.132,13.875v-3.75A1.135,1.135,0,0,1,13.269,9H17.06A1.135,1.135,0,0,1,18.2,10.125v3.75A1.135,1.135,0,0,1,17.06,15H13.269A1.135,1.135,0,0,1,12.132,13.875ZM25.4,15h3.791a1.135,1.135,0,0,0,1.137-1.125v-3.75A1.135,1.135,0,0,0,29.192,9H25.4a1.135,1.135,0,0,0-1.137,1.125v3.75A1.135,1.135,0,0,0,25.4,15ZM13.269,24H17.06A1.135,1.135,0,0,0,18.2,22.875v-3.75A1.135,1.135,0,0,0,17.06,18H13.269a1.135,1.135,0,0,0-1.137,1.125v3.75A1.135,1.135,0,0,0,13.269,24ZM25.4,24h3.791a1.135,1.135,0,0,0,1.137-1.125v-3.75A1.135,1.135,0,0,0,29.192,18H25.4a1.135,1.135,0,0,0-1.137,1.125v3.75A1.135,1.135,0,0,0,25.4,24Zm-7.2,7.875v-3.75A1.135,1.135,0,0,0,17.06,27H13.269a1.135,1.135,0,0,0-1.137,1.125v3.75A1.135,1.135,0,0,0,13.269,33H17.06A1.135,1.135,0,0,0,18.2,31.875ZM25.4,33h3.791a1.135,1.135,0,0,0,1.137-1.125v-3.75A1.135,1.135,0,0,0,29.192,27H25.4a1.135,1.135,0,0,0-1.137,1.125v3.75A1.135,1.135,0,0,0,25.4,33Zm17.06,11.625V48H0V44.625A1.135,1.135,0,0,1,1.137,43.5H2.986V2.25A2.257,2.257,0,0,1,5.26,0H37.2a2.257,2.257,0,0,1,2.275,2.25V43.5h1.848A1.135,1.135,0,0,1,42.461,44.625ZM7.535,43.406H18.2V37.125A1.135,1.135,0,0,1,19.335,36h3.791a1.135,1.135,0,0,1,1.137,1.125v6.281H34.926V4.594L7.582,4.5Z" fill="#707070"/>
</svg>
