<svg xmlns="http://www.w3.org/2000/svg" width="48" height="33.6" viewBox="0 0 48 33.6">
  <path id="people-group-solid" d="M13.8,36.2A4.2,4.2,0,1,1,9.6,32,4.2,4.2,0,0,1,13.8,36.2Zm1.83,8.123A10.781,10.781,0,0,0,12,52.4a10.377,10.377,0,0,0,2.4,6.787V60.8A2.4,2.4,0,0,1,12,63.2H7.2a2.4,2.4,0,0,1-2.4-2.4V58.79A8.4,8.4,0,0,1,8.4,42.8h2.4a8.523,8.523,0,0,1,4.83,1.522ZM4.8,48.027a4.794,4.794,0,0,0,0,6.345ZM33.6,60.8V59.188a10.8,10.8,0,0,0-1.23-14.865A8.364,8.364,0,0,1,37.2,42.8h2.4a8.4,8.4,0,0,1,3.6,15.99V60.8a2.4,2.4,0,0,1-2.4,2.4H36A2.4,2.4,0,0,1,33.6,60.8Zm9.6-6.428a4.794,4.794,0,0,0,0-6.345ZM42.6,36.2A4.2,4.2,0,1,1,38.4,32,4.2,4.2,0,0,1,42.6,36.2Zm-23.4.6A4.8,4.8,0,1,1,24,41.6,4.8,4.8,0,0,1,19.2,36.8ZM33.6,52.4a8.4,8.4,0,0,1-4.8,7.59V63.2a2.4,2.4,0,0,1-2.4,2.4H21.6a2.4,2.4,0,0,1-2.4-2.4V59.99A8.4,8.4,0,0,1,22.8,44h2.4A8.4,8.4,0,0,1,33.6,52.4ZM19.2,55.572V49.228a4.794,4.794,0,0,0,0,6.345Zm9.6-6.345v6.345a4.794,4.794,0,0,0,0-6.345Z" transform="translate(0 -32)" fill="#707070"/>
</svg>
