<svg xmlns="http://www.w3.org/2000/svg" width="18" height="16.2" viewBox="0 0 18 16.2">
  <path id="grip-vertical-solid_1_" data-name="grip-vertical-solid (1)" d="M2.25,49.571A2.249,2.249,0,0,0,0,51.821v2.7a2.249,2.249,0,0,0,2.25,2.25h2.7a2.249,2.249,0,0,0,2.25-2.25v-2.7a2.249,2.249,0,0,0-2.25-2.25Zm10.8,0a2.249,2.249,0,0,0-2.25,2.25v2.7a2.249,2.249,0,0,0,2.25,2.25h2.7A2.249,2.249,0,0,0,18,54.521v-2.7a2.249,2.249,0,0,0-2.25-2.25Zm-10.8-1.8h2.7a2.249,2.249,0,0,0,2.25-2.25v-2.7a2.249,2.249,0,0,0-2.25-2.25H2.25A2.249,2.249,0,0,0,0,42.821v2.7A2.249,2.249,0,0,0,2.25,47.771Zm10.8-7.2a2.249,2.249,0,0,0-2.25,2.25v2.7a2.249,2.249,0,0,0,2.25,2.25h2.7A2.249,2.249,0,0,0,18,45.521v-2.7a2.249,2.249,0,0,0-2.25-2.25Z" transform="translate(0 -40.571)"/>
</svg>
