<svg xmlns="http://www.w3.org/2000/svg" width="24.637" height="24.012" viewBox="0 0 24.637 24.012">
  <g id="ic-left-arrow" transform="translate(0 0)">
    <path id="arrow-left-solid" d="M14.111,60.054l-1.221,1.221a1.314,1.314,0,0,1-1.864,0L.338,50.591a1.314,1.314,0,0,1,0-1.864L11.027,38.038a1.314,1.314,0,0,1,1.864,0l1.221,1.221a1.321,1.321,0,0,1-.022,1.886L7.464,47.457h15.8a1.316,1.316,0,0,1,1.32,1.32v1.76a1.316,1.316,0,0,1-1.32,1.32H7.464l6.626,6.312A1.312,1.312,0,0,1,14.111,60.054Z" transform="translate(0.051 -37.65)" fill="#146f62"/>
  </g>
</svg>
