<svg id="ic-list-detail" xmlns="http://www.w3.org/2000/svg" width="18" height="15.75" viewBox="0 0 18 15.75">
  <path id="list-alt-regular" d="M16.313,32H1.687A1.687,1.687,0,0,0,0,33.688V46.063A1.687,1.687,0,0,0,1.687,47.75H16.313A1.687,1.687,0,0,0,18,46.063V33.688A1.687,1.687,0,0,0,16.313,32ZM16.1,46.063H1.9a.211.211,0,0,1-.211-.211V33.9a.211.211,0,0,1,.211-.211H16.1a.211.211,0,0,1,.211.211V45.852A.211.211,0,0,1,16.1,46.063Zm-1.477-3.234v.844a.422.422,0,0,1-.422.422H7.172a.422.422,0,0,1-.422-.422v-.844a.422.422,0,0,1,.422-.422H14.2A.422.422,0,0,1,14.625,42.828Zm0-3.375V40.3a.422.422,0,0,1-.422.422H7.172A.422.422,0,0,1,6.75,40.3v-.844a.422.422,0,0,1,.422-.422H14.2A.422.422,0,0,1,14.625,39.453Zm0-3.375v.844a.422.422,0,0,1-.422.422H7.172a.422.422,0,0,1-.422-.422v-.844a.422.422,0,0,1,.422-.422H14.2A.422.422,0,0,1,14.625,36.078ZM5.766,36.5A1.266,1.266,0,1,1,4.5,35.234,1.266,1.266,0,0,1,5.766,36.5Zm0,3.375A1.266,1.266,0,1,1,4.5,38.609,1.266,1.266,0,0,1,5.766,39.875Zm0,3.375A1.266,1.266,0,1,1,4.5,41.984,1.266,1.266,0,0,1,5.766,43.25Z" transform="translate(0 -32)" fill="#707070"/>
</svg>
