<svg xmlns="http://www.w3.org/2000/svg" width="92" height="71.556" viewBox="0 0 92 71.556">
  <path id="diagram-project-solid_1_" data-name="diagram-project-solid (1)" d="M0,39.667A7.669,7.669,0,0,1,7.667,32H23a7.669,7.669,0,0,1,7.667,7.667v2.556H61.333V39.667A7.669,7.669,0,0,1,69,32H84.333A7.669,7.669,0,0,1,92,39.667V55a7.669,7.669,0,0,1-7.667,7.667H69A7.669,7.669,0,0,1,61.333,55V52.444H30.667V55a6.5,6.5,0,0,1-.048.8l12.826,17.09H58.778a7.669,7.669,0,0,1,7.667,7.667V95.889a7.669,7.669,0,0,1-7.667,7.667H43.444a7.669,7.669,0,0,1-7.667-7.667V80.556a6.5,6.5,0,0,1,.048-.8L23,62.667H7.667A7.669,7.669,0,0,1,0,55Z" transform="translate(0 -32)" fill="#fff"/>
</svg>
