<svg xmlns="http://www.w3.org/2000/svg" width="24" height="21.334" viewBox="0 0 24 21.334">
  <path id="hand-holding-medical-solid" d="M9.333,1V3.333H7a1,1,0,0,0-1,1v2a1,1,0,0,0,1,1H9.333V9.667a1,1,0,0,0,1,1h2a1,1,0,0,0,1-1V7.333h2.333a1,1,0,0,0,1-1v-2a1,1,0,0,0-1-1H13.333V1a1,1,0,0,0-1-1h-2A1,1,0,0,0,9.333,1ZM23.321,16.342a1.666,1.666,0,0,0-1.975-2.683l-4.988,3.675H11.333a.667.667,0,0,1,0-1.333h3.333a1.333,1.333,0,0,0,0-2.667h-6.6A5.347,5.347,0,0,0,4.738,14.5L2.867,16H1.333A1.332,1.332,0,0,0,0,17.334V20a1.332,1.332,0,0,0,1.333,1.333H14.688a5.681,5.681,0,0,0,3.363-1.1l5.275-3.888ZM8.029,16h0Z" fill="#707070"/>
</svg>
