<svg xmlns="http://www.w3.org/2000/svg" width="48" height="42.663" viewBox="0 0 48 42.663">
  <path id="door-open-solid_1_" data-name="door-open-solid (1)" d="M26.667,2.709a2.641,2.641,0,0,0-1.025-2.1A2.688,2.688,0,0,0,23.35.126L8.358,3.876A3.994,3.994,0,0,0,5.333,7.751V37.376H2.667a2.667,2.667,0,1,0,0,5.333h24v-40ZM21.333,21.376c0,1.475-.892,2.667-2,2.667s-2-1.192-2-2.667.892-2.667,2-2.667S21.333,19.9,21.333,21.376Zm8-10.667h8v32h8a2.667,2.667,0,0,0,0-5.333H42.667V10.709a5.338,5.338,0,0,0-5.333-5.333h-8Z" transform="translate(0 -0.046)" fill="#707070"/>
</svg>
