<svg xmlns="http://www.w3.org/2000/svg" width="48" height="38.4" viewBox="0 0 48 38.4">
  <path id="boxes-packing-solid" d="M19.2,3.6A3.6,3.6,0,0,1,22.8,0H44.4A3.6,3.6,0,0,1,48,3.6V34.8a3.6,3.6,0,0,1-3.6,3.6H28.6a4.067,4.067,0,0,0,.2-1.2V19a3.61,3.61,0,0,0,2.4-3.4V13.2a3.6,3.6,0,0,0-3.6-3.6H19.2ZM42.847,26.048a1.191,1.191,0,0,0,0-1.695l-4.8-4.8a1.191,1.191,0,0,0-1.695,0l-4.8,4.8a1.2,1.2,0,1,0,1.7,1.695L36,23.3V32.4a1.2,1.2,0,1,0,2.4,0V23.3l2.752,2.753a1.191,1.191,0,0,0,1.695,0ZM0,13.2A1.2,1.2,0,0,1,1.2,12H27.6a1.2,1.2,0,0,1,1.2,1.2v2.4a1.2,1.2,0,0,1-1.2,1.2H1.2A1.2,1.2,0,0,1,0,15.6ZM26.4,36A2.4,2.4,0,0,1,24,38.4H4.8A2.4,2.4,0,0,1,2.4,36V19.2h24ZM10.8,24a1.2,1.2,0,1,0,0,2.4H18A1.2,1.2,0,1,0,18,24Z" fill="#707070"/>
</svg>
