<svg xmlns="http://www.w3.org/2000/svg" width="48" height="38.4" viewBox="0 0 48 38.4">
  <path id="truck-solid_1_" data-name="truck-solid (1)" d="M46.8,26.4H45.6V18.292a3.6,3.6,0,0,0-1.057-2.542L37.05,8.257A3.6,3.6,0,0,0,34.507,7.2H31.2V3.6A3.6,3.6,0,0,0,27.6,0H3.6A3.6,3.6,0,0,0,0,3.6v24a3.6,3.6,0,0,0,3.6,3.6H4.8a7.2,7.2,0,1,0,14.4,0h9.6a7.2,7.2,0,1,0,14.4,0h3.6A1.2,1.2,0,0,0,48,30V27.6A1.2,1.2,0,0,0,46.8,26.4ZM12,34.8a3.6,3.6,0,1,1,3.6-3.6A3.6,3.6,0,0,1,12,34.8Zm24,0a3.6,3.6,0,1,1,3.6-3.6A3.6,3.6,0,0,1,36,34.8Zm6-15.6H31.2V10.8h3.308L42,18.292Z" fill="#707070"/>
</svg>
