<svg id="warning" xmlns="http://www.w3.org/2000/svg" width="46.526" height="42.332" viewBox="0 0 46.526 42.332">
  <path id="Path_4839" data-name="Path 4839" d="M45.968,56.1l-18.9-33.543a4.4,4.4,0,0,0-7.617,0L.56,56.1a4.427,4.427,0,0,0,3.808,6.592H42.013A4.471,4.471,0,0,0,45.968,56.1Z" transform="translate(0 -20.359)" fill="#e24c4b"/>
  <path id="Path_4840" data-name="Path 4840" d="M61.309,63.025,80.2,96.568H42.413l18.9-33.543Z" transform="translate(-38.045 -58.631)" fill="#fff"/>
  <g id="Group_164401" data-name="Group 164401" transform="translate(20.177 16.259)">
    <path id="Path_4841" data-name="Path 4841" d="M195.916,181.741l1.172,7.763a1.905,1.905,0,0,0,1.9,1.611h0a2.028,2.028,0,0,0,1.9-1.611l1.172-7.763a3.047,3.047,0,0,0-3.076-3.515h0A3.124,3.124,0,0,0,195.916,181.741Z" transform="translate(-195.905 -178.226)" fill="#3f4448"/>
    <circle id="Ellipse_52" data-name="Ellipse 52" cx="1.758" cy="1.758" r="1.758" transform="translate(1.329 14.501)" fill="#3f4448"/>
  </g>
</svg>
