<svg id="Group_166947" data-name="Group 166947" xmlns="http://www.w3.org/2000/svg" width="26.44" height="15.38" viewBox="0 0 26.44 15.38">
  <path id="Path_4915" data-name="Path 4915" d="M13.065,6.153l-6.132-6a.42.42,0,0,0-.646,0l-6.132,6a.484.484,0,0,0,.323.839h2.9v7.776a.742.742,0,0,0,.645.613H9.192c.258,0,.323-.323.323-.613V6.991h3.228a.484.484,0,0,0,.323-.839Z" transform="translate(26.44 15.38) rotate(180)" fill="#0c4523"/>
  <path id="Path_4916" data-name="Path 4916" d="M77.611,6.153l-6.132-6a.42.42,0,0,0-.646,0l-6.132,6a.484.484,0,0,0,.323.839h2.9v7.776a.742.742,0,0,0,.646.613h5.164c.258,0,.323-.323.323-.613V6.991h3.228a.484.484,0,0,0,.323-.839Z" transform="translate(-64.546 0)" fill="#bc0000"/>
</svg>
